<svg width="20" height="20" viewBox="0 0 20 20" fill="none" xmlns="http://www.w3.org/2000/svg">
<path d="M14.5417 18.9584C13.6 18.9584 12.6084 18.7334 11.5834 18.3C10.5834 17.875 9.57502 17.2917 8.59169 16.5834C7.61669 15.8667 6.67502 15.0667 5.78335 14.1917C4.90002 13.3 4.10002 12.3584 3.39169 11.3917C2.67502 10.3917 2.10002 9.39169 1.69169 8.42502C1.25835 7.39169 1.04169 6.39169 1.04169 5.45002C1.04169 4.80002 1.15835 4.18335 1.38335 3.60835C1.61669 3.01669 1.99169 2.46669 2.50002 1.99169C3.14169 1.35835 3.87502 1.04169 4.65835 1.04169C4.98335 1.04169 5.31669 1.11669 5.60002 1.25002C5.92502 1.40002 6.20002 1.62502 6.40002 1.92502L8.33335 4.65002C8.50835 4.89169 8.64169 5.12502 8.73335 5.35835C8.84169 5.60835 8.90002 5.85835 8.90002 6.10002C8.90002 6.41669 8.80835 6.72502 8.63335 7.01669C8.50835 7.24169 8.31669 7.48335 8.07502 7.72502L7.50835 8.31669C7.51669 8.34169 7.52502 8.35835 7.53335 8.37502C7.63335 8.55002 7.83335 8.85002 8.21669 9.30002C8.62502 9.76669 9.00835 10.1917 9.39169 10.5834C9.88335 11.0667 10.2917 11.45 10.675 11.7667C11.15 12.1667 11.4584 12.3667 11.6417 12.4584L11.625 12.5L12.2334 11.9C12.4917 11.6417 12.7417 11.45 12.9834 11.325C13.4417 11.0417 14.025 10.9917 14.6084 11.2334C14.825 11.325 15.0584 11.45 15.3084 11.625L18.075 13.5917C18.3834 13.8 18.6084 14.0667 18.7417 14.3834C18.8667 14.7 18.925 14.9917 18.925 15.2834C18.925 15.6834 18.8334 16.0834 18.6584 16.4584C18.4834 16.8334 18.2667 17.1584 17.9917 17.4584C17.5167 17.9834 17 18.3584 16.4 18.6C15.825 18.8334 15.2 18.9584 14.5417 18.9584ZM4.65835 2.29169C4.20002 2.29169 3.77502 2.49169 3.36669 2.89169C2.98335 3.25002 2.71669 3.64169 2.55002 4.06669C2.37502 4.50002 2.29169 4.95835 2.29169 5.45002C2.29169 6.22502 2.47502 7.06669 2.84169 7.93335C3.21669 8.81669 3.74169 9.73335 4.40835 10.65C5.07502 11.5667 5.83335 12.4584 6.66669 13.3C7.50002 14.125 8.40002 14.8917 9.32502 15.5667C10.225 16.225 11.15 16.7584 12.0667 17.1417C13.4917 17.75 14.825 17.8917 15.925 17.4334C16.35 17.2584 16.725 16.9917 17.0667 16.6084C17.2584 16.4 17.4084 16.175 17.5334 15.9084C17.6334 15.7 17.6834 15.4834 17.6834 15.2667C17.6834 15.1334 17.6584 15 17.5917 14.85C17.5667 14.8 17.5167 14.7084 17.3584 14.6L14.5917 12.6334C14.425 12.5167 14.275 12.4334 14.1334 12.375C13.95 12.3 13.875 12.225 13.5917 12.4C13.425 12.4834 13.275 12.6084 13.1084 12.775L12.475 13.4C12.15 13.7167 11.65 13.7917 11.2667 13.65L11.0417 13.55C10.7 13.3667 10.3 13.0834 9.85835 12.7084C9.45835 12.3667 9.02502 11.9667 8.50002 11.45C8.09169 11.0334 7.68335 10.5917 7.25835 10.1C6.86669 9.64169 6.58335 9.25002 6.40835 8.92502L6.30835 8.67502C6.25835 8.48335 6.24169 8.37502 6.24169 8.25835C6.24169 7.95835 6.35002 7.69169 6.55835 7.48335L7.18335 6.83335C7.35002 6.66669 7.47502 6.50835 7.55835 6.36669C7.62502 6.25835 7.65002 6.16669 7.65002 6.08335C7.65002 6.01669 7.62502 5.91669 7.58335 5.81669C7.52502 5.68335 7.43335 5.53335 7.31669 5.37502L5.38335 2.64169C5.30002 2.52502 5.20002 2.44169 5.07502 2.38335C4.94169 2.32502 4.80002 2.29169 4.65835 2.29169ZM11.625 12.5084L11.4917 13.075L11.7167 12.4917C11.675 12.4834 11.6417 12.4917 11.625 12.5084Z" fill="white"/>
<path d="M15.4167 8.12498C15.075 8.12498 14.7917 7.84165 14.7917 7.49998C14.7917 7.19998 14.4917 6.57498 13.9917 6.04165C13.5 5.51665 12.9583 5.20831 12.5 5.20831C12.1583 5.20831 11.875 4.92498 11.875 4.58331C11.875 4.24165 12.1583 3.95831 12.5 3.95831C13.3083 3.95831 14.1583 4.39165 14.9 5.18331C15.5917 5.92498 16.0417 6.83331 16.0417 7.49998C16.0417 7.84165 15.7583 8.12498 15.4167 8.12498Z" fill="white"/>
<path d="M18.3333 8.12502C17.9917 8.12502 17.7083 7.84169 17.7083 7.50002C17.7083 4.62502 15.375 2.29169 12.5 2.29169C12.1583 2.29169 11.875 2.00835 11.875 1.66669C11.875 1.32502 12.1583 1.04169 12.5 1.04169C16.0583 1.04169 18.9583 3.94169 18.9583 7.50002C18.9583 7.84169 18.675 8.12502 18.3333 8.12502Z" fill="white"/>
</svg>
