<svg width="65" height="56" viewBox="0 0 65 56" fill="none" xmlns="http://www.w3.org/2000/svg">
<rect x="26.083" y="0.171387" width="12.8333" height="55.0284" rx="6" fill="#ffffff"/>
<path opacity="0.4" d="M0.416504 21.5713C0.416504 18.1945 3.28934 15.4571 6.83317 15.4571V15.4571C10.377 15.4571 13.2498 18.1945 13.2498 21.5713V49.0855C13.2498 52.4623 10.377 55.1998 6.83317 55.1998V55.1998C3.28934 55.1998 0.416504 52.4623 0.416504 49.0855V21.5713Z" fill="#8ec4f8"/>
<path opacity="0.4" d="M51.75 21.5713C51.75 18.1945 54.6228 15.4571 58.1667 15.4571V15.4571C61.7105 15.4571 64.5833 18.1945 64.5833 21.5713V49.0855C64.5833 52.4623 61.7105 55.1998 58.1667 55.1998V55.1998C54.6228 55.1998 51.75 52.4623 51.75 49.0855V21.5713Z" fill="#8ec4f8"/>
</svg>
