<svg width="91" height="90" viewBox="0 0 91 90" fill="none" xmlns="http://www.w3.org/2000/svg">
<circle opacity="0.2" cx="45.0547" cy="45" r="45" fill="#008EFF" fill-opacity="0.12"/>
<path d="M63.9285 41.3209C62.7742 39.6235 61.7948 37.8135 61.0054 35.9187C59.6374 32.2716 61.4277 30.086 63.1709 28.8964C63.7235 28.5213 64.0944 27.9325 64.194 27.2721C64.2936 26.6116 64.113 25.9396 63.6956 25.4182L62.3909 23.7902C61.7751 23.0205 60.7502 22.7073 59.8093 23.0014C54.656 24.6477 49.5273 22.9613 46.133 21.2574C45.4562 20.9142 44.6563 20.9142 43.9794 21.2574C40.5851 22.9622 35.4565 24.647 30.3031 23.0013C29.3621 22.7081 28.3375 23.0215 27.7215 23.791L26.4168 25.4181C25.9987 25.9394 25.8176 26.6118 25.9172 27.2726C26.0169 27.9333 26.3883 28.5224 26.9415 28.8972C28.6847 30.0867 30.475 32.2723 29.107 35.9194C28.3175 37.8139 27.3381 39.6236 26.1839 41.3208C25.4751 42.4455 24.744 43.6071 24.1152 44.8071C21.6681 49.495 21.7769 55.0068 24.3833 58.8484C26.0507 61.2471 28.5181 62.9735 31.3431 63.7178C31.8478 63.861 32.383 63.9906 32.943 64.1034L33.743 64.2634C37.4741 65.0066 41.334 65.7745 43.9027 68.5033C44.2017 68.8203 44.6182 69 45.0539 69C45.4896 69 45.9061 68.8203 46.205 68.5033C48.777 65.7745 52.6368 65.0066 56.3647 64.2634L57.1647 64.1034C57.7199 63.9906 58.2574 63.8634 58.7647 63.7178C61.5896 62.9735 64.057 61.2471 65.7245 58.8484C68.3348 55.0085 68.4396 49.495 65.9925 44.8079C65.3709 43.608 64.6373 42.4464 63.9285 41.3209ZM42.8395 59.9355L41.6675 56.3525L43.0066 54.6005H47.1058L48.4449 56.3525L47.2729 59.9355C45.8152 60.2795 44.2973 60.2795 42.8395 59.9355ZM41.4132 41.7392L44.2563 43.7368V46.0247L40.9555 48.3446L38.7724 47.7046L37.7524 44.4047C38.7393 43.2335 39.9954 42.3189 41.4132 41.7392ZM46.9218 53.0005H43.1907L42.0451 49.535L45.0562 47.4183L48.0674 49.535L46.9218 53.0005ZM36.5933 46.0695L37.2053 48.0479L35.5517 49.2886C35.702 48.1616 36.0549 47.071 36.5933 46.0695ZM38.2948 49.2295L40.4708 49.8695L41.7203 53.6486L40.3812 55.4005H36.7461C36.0284 54.1564 35.6002 52.7665 35.4934 51.3342L38.2948 49.2295ZM40.1972 57.0004L40.9395 59.2715C39.7882 58.7246 38.7584 57.9523 37.9108 57.0004H40.1972ZM49.9153 57.0004H52.2017C51.354 57.9522 50.3242 58.7244 49.1729 59.2715L49.9153 57.0004ZM53.3664 55.4004H49.7314L48.3922 53.6485L49.6418 49.8702L51.8177 49.2302L54.6176 51.3357C54.512 52.7676 54.0843 54.1571 53.3664 55.4004ZM52.9072 48.0478L53.5192 46.0687C54.0572 47.0704 54.4096 48.1614 54.5592 49.2886L52.9072 48.0478ZM51.34 47.7031L49.1569 48.3431L45.8562 46.0248V43.7368L48.6993 41.7369C50.1167 42.3172 51.3724 43.232 52.3592 44.4032L51.34 47.7031ZM45.0562 42.3432L43.3603 41.1512C44.4821 40.9507 45.6305 40.9507 46.7522 41.1512L45.0562 42.3432ZM34.0549 62.6946L33.255 62.5347C32.7389 62.4307 32.2414 62.3107 31.7758 62.1795C29.3136 61.5354 27.1613 60.0355 25.7048 57.9484C23.4201 54.5885 23.3529 49.7206 25.532 45.5487C26.128 44.4064 26.8432 43.2728 27.5319 42.176C28.7458 40.3875 29.774 38.4798 30.6007 36.4825C32.4238 31.6187 29.6527 28.8148 27.8375 27.5756C27.6524 27.451 27.5284 27.254 27.496 27.0332C27.462 26.8137 27.5227 26.5901 27.6631 26.418L28.9719 24.7885C29.1221 24.6004 29.3489 24.4899 29.5895 24.4877C29.6661 24.4879 29.7421 24.4997 29.8151 24.5229C35.2645 26.2644 40.5988 24.6597 44.2563 22.9005V39.4384C38.3982 39.8547 33.8581 44.7277 33.8565 50.6004C33.8565 50.7428 33.8565 50.8797 33.8677 50.9796C34.0292 55.8432 37.3151 60.0448 41.9963 61.3737C42.7335 61.5857 43.4911 61.7197 44.2563 61.7737V66.6399C41.3835 64.1594 37.5109 63.3826 34.0549 62.6946ZM64.4061 57.9484C62.9491 60.0353 60.7966 61.5353 58.3342 62.1795C57.8687 62.3107 57.3743 62.4307 56.8551 62.5347L56.0551 62.6946C52.5952 63.3834 48.7169 64.1618 45.8538 66.6417V61.7715C46.6172 61.7182 47.373 61.5855 48.1089 61.3755C52.7785 60.0536 56.0635 55.872 56.2422 51.0222C56.2559 50.8798 56.2559 50.743 56.2559 50.6006C56.2727 44.7206 51.7227 39.837 45.8561 39.4385V22.9014C49.5144 24.6613 54.8503 26.2661 60.2973 24.5229C60.6064 24.4295 60.9411 24.5353 61.1405 24.7892L62.4444 26.418C62.5824 26.5919 62.6419 26.8154 62.6087 27.0349C62.5755 27.2544 62.4525 27.4502 62.2692 27.5755C60.4541 28.8147 57.683 31.6186 59.5061 36.4825C60.333 38.4797 61.3615 40.3874 62.5756 42.1759C63.2676 43.2727 63.9828 44.4063 64.5756 45.5487C66.7572 49.7206 66.69 54.5877 64.4061 57.9484Z" fill="#008EFF"/>
<path fill-rule="evenodd" clip-rule="evenodd" d="M28.3535 56.1508C26.9264 53.7819 26.7183 50.8734 27.7935 48.3254C27.9482 47.9112 27.7377 47.4501 27.3235 47.2954C26.9093 47.1408 26.4482 47.3512 26.2935 47.7654C25.0632 51.0869 25.3383 54.5564 27.0295 57.0451C27.3995 57.5878 27.8318 58.0853 28.3175 58.5275C28.5289 58.7199 28.827 58.7848 29.0993 58.6978C29.3716 58.6108 29.5768 58.3851 29.6377 58.1058C29.6985 57.8264 29.6057 57.5359 29.3942 57.3435C29.0019 56.988 28.6526 56.5877 28.3535 56.1508Z" fill="#008EFF"/>
<path fill-rule="evenodd" clip-rule="evenodd" d="M36.2564 37.8009C36.6982 37.8009 37.0564 37.4427 37.0564 37.0009V33.801H41.0564C41.4981 33.801 41.8563 33.4428 41.8563 33.001C41.8563 32.5592 41.4981 32.201 41.0564 32.201H37.0564V29.0011H41.0564C41.4981 29.0011 41.8563 28.6429 41.8563 28.2011C41.8563 27.7593 41.4981 27.4011 41.0564 27.4011H36.2565C35.8147 27.4011 35.4565 27.7593 35.4565 28.2011V37.0009C35.4565 37.4428 35.8147 37.8009 36.2564 37.8009Z" fill="#008EFF"/>
<path fill-rule="evenodd" clip-rule="evenodd" d="M54.7362 33.8091C54.2987 33.7468 53.8937 34.0509 53.8314 34.4883C53.6873 35.4691 52.8476 36.1973 51.8562 36.201C50.7546 36.194 49.8633 35.3027 49.8563 34.2011V31.0011C49.8563 29.8966 50.7517 29.0012 51.8562 29.0012C52.848 29.0071 53.6874 29.7353 53.8329 30.7164C53.8653 31.0068 54.0534 31.2566 54.3237 31.3677C54.5939 31.4789 54.9033 31.4339 55.1307 31.2502C55.3581 31.0666 55.4672 30.7736 55.4153 30.486C55.1556 28.7188 53.6424 27.4073 51.8562 27.4012C49.869 27.4035 48.2586 29.0139 48.2563 31.0011V34.2011C48.2638 36.1862 49.8712 37.7935 51.8562 37.801C53.6434 37.7949 55.1572 36.4822 55.4161 34.7138C55.446 34.5036 55.3912 34.2903 55.2636 34.1206C55.1361 33.9509 54.9464 33.8388 54.7362 33.8091Z" fill="#008EFF"/>
</svg>
