<svg width="91" height="90" viewBox="0 0 91 90" fill="none" xmlns="http://www.w3.org/2000/svg">
<circle opacity="0.2" cx="45.5273" cy="45" r="45" fill="#14B082" fill-opacity="0.12"/>
<g clip-path="url(#clip0_277_741)">
<path d="M29.9279 30.5997C31.6951 30.5997 33.1279 29.1671 33.1279 27.3998C33.1279 25.6325 31.6952 24.1998 29.9279 24.1998C28.1606 24.1998 26.728 25.6326 26.728 27.3998C26.728 29.167 28.1607 30.5997 29.9279 30.5997ZM29.9279 25.7998C30.8116 25.7998 31.5279 26.5161 31.5279 27.3998C31.5279 28.2834 30.8116 28.9998 29.9279 28.9998C29.0442 28.9998 28.3279 28.2834 28.3279 27.3998C28.3279 26.5161 29.0442 25.7998 29.9279 25.7998Z" fill="#14B082"/>
<path d="M48.3274 36.1996C50.0946 36.1996 51.5274 34.767 51.5274 32.9996C51.5274 31.2323 50.0947 29.7997 48.3274 29.7997C46.5601 29.7997 45.1274 31.2323 45.1274 32.9996C45.1274 34.767 46.5602 36.1996 48.3274 36.1996ZM48.3274 31.3997C49.2111 31.3997 49.9274 32.1161 49.9274 32.9997C49.9274 33.8834 49.2111 34.5997 48.3274 34.5997C47.4437 34.5997 46.7274 33.8834 46.7274 32.9997C46.7274 32.1161 47.4437 31.3997 48.3274 31.3997Z" fill="#14B082"/>
<path d="M32.3274 50.5994C30.5602 50.5994 29.1274 52.032 29.1274 53.7993C29.1274 55.5666 30.5601 56.9993 32.3274 56.9993C34.0947 56.9993 35.5274 55.5666 35.5274 53.7993C35.5274 52.032 34.0946 50.5994 32.3274 50.5994ZM32.3274 55.3992C31.4437 55.3992 30.7274 54.6829 30.7274 53.7992C30.7274 52.9156 31.4437 52.1993 32.3274 52.1993C33.2111 52.1993 33.9274 52.9156 33.9274 53.7992C33.9274 54.6829 33.2111 55.3992 32.3274 55.3992Z" fill="#14B082"/>
<path fill-rule="evenodd" clip-rule="evenodd" d="M44.5619 47.1651C44.8743 47.4774 45.3806 47.4774 45.6931 47.1651L47.5274 45.3308L49.3617 47.1651C49.6757 47.4682 50.1746 47.464 50.4832 47.1554C50.7918 46.8468 50.796 46.3478 50.4929 46.0339L48.6586 44.1996L50.4929 42.3653C50.796 42.0513 50.7918 41.5524 50.4832 41.2438C50.1746 40.9352 49.6757 40.9309 49.3617 41.2341L47.5274 43.0684L45.6931 41.2341C45.3791 40.9309 44.8802 40.9352 44.5716 41.2438C44.263 41.5524 44.2587 42.0513 44.5619 42.3653L46.3962 44.1996L44.5619 46.0339C44.2496 46.3463 44.2496 46.8527 44.5619 47.1651Z" fill="#14B082"/>
<path fill-rule="evenodd" clip-rule="evenodd" d="M32.2474 37.7996C31.2223 36.4435 30.6891 34.779 30.7354 33.0797C30.7652 32.6486 30.4474 32.2718 30.0174 32.2285C29.5874 32.1853 29.2008 32.4913 29.1443 32.9197C29.1014 35.2424 29.9069 37.501 31.4098 39.2724C30.3974 41.6129 30.038 44.1839 30.3698 46.7122L29.6946 46.0378C29.3807 45.7347 28.8818 45.739 28.5732 46.0476C28.2646 46.3562 28.2603 46.8551 28.5634 47.169L30.9634 49.569C31.1136 49.7171 31.3164 49.7999 31.5274 49.7994C31.5702 49.7994 31.6131 49.796 31.6554 49.789C31.9095 49.7479 32.1283 49.5872 32.2434 49.357L33.8433 46.1571C34.0409 45.7616 33.8803 45.281 33.485 45.0835C33.0895 44.886 32.6089 45.0465 32.4114 45.4419L31.9482 46.3698C31.7215 44.4035 31.9486 42.4114 32.6122 40.5468C34.839 42.472 37.5031 43.823 40.372 44.4819L39.1721 45.0835C38.7766 45.281 38.6162 45.7616 38.8137 46.1571C39.0112 46.5525 39.4918 46.7129 39.8873 46.5154L43.0872 44.9154C43.3168 44.8003 43.4771 44.582 43.5183 44.3286C43.5595 44.0751 43.4765 43.8173 43.2952 43.6355L40.8952 41.2355C40.5813 40.9324 40.0824 40.9367 39.7738 41.2453C39.4652 41.5539 39.4609 42.0528 39.7641 42.3667L40.1697 42.7723C37.6105 42.1335 35.2542 40.8586 33.3194 39.0659C33.5125 38.7388 33.7262 38.4243 33.9594 38.1244C37.0793 34.1468 42.7104 33.8045 42.7672 33.8045C43.209 33.7824 43.5493 33.4064 43.5272 32.9645C43.5051 32.5227 43.1291 32.1824 42.6872 32.2045C42.4272 32.2181 36.2874 32.5781 32.7106 37.1276C32.5402 37.3405 32.3962 37.5748 32.2474 37.7996Z" fill="#14B082"/>
<path d="M25.9278 60.9992H45.5994C47.1627 66.2517 52.2992 69.5999 57.7359 68.9104C63.1726 68.2209 67.3106 63.6965 67.5133 58.22C67.5269 58.0784 67.5269 57.9416 67.5269 57.7992C67.5438 51.9191 62.9938 47.0355 57.1272 46.6371V28.1998C57.1271 27.9876 57.0428 27.7843 56.8928 27.6342L50.4928 21.2344C50.3428 21.0843 50.1393 21 49.9272 21H25.9278C24.6023 21 23.5278 22.0745 23.5278 23.4V58.5992C23.5278 59.9246 24.6023 60.9992 25.9278 60.9992ZM56.3271 48.1994C56.8957 48.1991 57.4632 48.2492 58.023 48.349L56.3271 49.5418L54.6312 48.349C55.191 48.2496 55.7585 48.1995 56.3271 48.1994ZM58.1934 60.1992H54.4607L53.3159 56.7336L56.3271 54.6169L59.3382 56.7336L58.1934 60.1992ZM51.652 62.5991H48.0177C47.2993 61.3552 46.8708 59.9652 46.7641 58.5327L49.5641 56.4287L51.74 57.0688L52.9888 60.8479L51.652 62.5991ZM52.684 48.937L55.5271 50.9353V53.224L52.2271 55.544L50.044 54.904L49.024 51.6048C50.0107 50.4331 51.2665 49.5177 52.684 48.937ZM47.8641 53.2681L48.4761 55.2465L46.8225 56.4872C46.9729 55.3602 47.3257 54.2696 47.8641 53.2681ZM49.1825 64.199H51.4672L52.2104 66.4702C51.0594 65.9232 50.0298 65.1509 49.1825 64.199ZM54.1112 67.1342L52.9392 63.5503L54.2776 61.7991H58.3767L59.7151 63.5503L58.5431 67.135C57.0856 67.4779 55.5685 67.4776 54.1112 67.1342ZM60.4438 66.4702L61.1862 64.199H63.4726C62.6248 65.1508 61.595 65.9231 60.4438 66.4702ZM64.6373 62.5991H61.0022L59.6639 60.8479L60.9126 57.0688L63.0886 56.4287L65.8885 58.5327C65.7833 59.9652 65.3555 61.3553 64.6373 62.5991ZM64.7901 53.2673C65.3277 54.2692 65.6801 55.3601 65.8301 56.4872L64.1765 55.2465L64.7901 53.2673ZM63.6301 51.6033L62.611 54.9008L60.427 55.5408L57.1271 53.224V50.9353L59.9702 48.9354C61.3878 49.5159 62.6436 50.4313 63.6301 51.6033ZM50.7272 23.7312L54.3959 27.3998H51.5272C51.0854 27.3998 50.7272 27.0416 50.7272 26.5998V23.7312ZM25.1278 23.4C25.1278 22.9582 25.486 22.6 25.9278 22.6H49.1273V26.5999C49.1273 27.9254 50.2018 28.9999 51.5272 28.9999H55.5272V46.6371C49.6695 47.0543 45.1298 51.9268 45.1274 57.7993C45.1274 57.9424 45.1274 58.0801 45.1386 58.1777C45.1534 58.5866 45.1908 58.9945 45.2506 59.3993H25.9278C25.486 59.3993 25.1278 59.0411 25.1278 58.5993V23.4Z" fill="#14B082"/>
</g>
<defs>
<clipPath id="clip0_277_741">
<rect width="48" height="48" fill="white" transform="translate(21.5273 21)"/>
</clipPath>
</defs>
</svg>
