<svg width="20" height="20" viewBox="0 0 20 20" fill="none" xmlns="http://www.w3.org/2000/svg">
<path d="M9.73327 12.8083C9.57494 12.8083 9.4166 12.75 9.2916 12.625C9.04993 12.3833 9.04993 11.9833 9.2916 11.7417L10.9833 10.05L9.2916 8.35835C9.04993 8.11668 9.04993 7.71668 9.2916 7.47501C9.53327 7.23335 9.93327 7.23335 10.1749 7.47501L12.3083 9.60835C12.5499 9.85001 12.5499 10.25 12.3083 10.4917L10.1749 12.625C10.0583 12.75 9.8916 12.8083 9.73327 12.8083Z" fill="#1D1D1D"/>
<path d="M11.8085 10.675H3.3335C2.99183 10.675 2.7085 10.3917 2.7085 10.05C2.7085 9.70832 2.99183 9.42499 3.3335 9.42499H11.8085C12.1502 9.42499 12.4335 9.70832 12.4335 10.05C12.4335 10.3917 12.1502 10.675 11.8085 10.675Z" fill="#1D1D1D"/>
<path d="M10 17.2917C9.65833 17.2917 9.375 17.0083 9.375 16.6667C9.375 16.325 9.65833 16.0417 10 16.0417C13.5583 16.0417 16.0417 13.5583 16.0417 10C16.0417 6.44168 13.5583 3.95834 10 3.95834C9.65833 3.95834 9.375 3.67501 9.375 3.33334C9.375 2.99168 9.65833 2.70834 10 2.70834C14.2917 2.70834 17.2917 5.70834 17.2917 10C17.2917 14.2917 14.2917 17.2917 10 17.2917Z" fill="#1D1D1D"/>
</svg>
