<svg width="91" height="90" viewBox="0 0 91 90" fill="none" xmlns="http://www.w3.org/2000/svg">
<circle opacity="0.2" cx="45.1094" cy="45" r="45" fill="#FABB18" fill-opacity="0.12"/>
<g clip-path="url(#clip0_277_782)">
<path d="M66.0598 56.8548C67.7561 55.4551 67.9965 52.9453 66.5968 51.249C65.8363 50.3275 64.7024 49.7961 63.5077 49.8014C63.3964 49.8014 63.2917 49.8253 63.1827 49.8343C62.5501 48.3653 61.1075 47.4102 59.508 47.4016C57.8552 47.4 56.3742 48.4226 55.7902 49.9689C55.0863 49.7455 54.3305 49.7455 53.6266 49.9689C52.849 47.9157 50.5541 46.8817 48.5009 47.6593C47.4406 48.0609 46.6022 48.8962 46.1966 49.955C45.4879 49.7454 44.7332 49.7503 44.0274 49.9689C43.2496 47.9156 40.9545 46.8816 38.9013 47.6594C37.8361 48.0629 36.9952 48.9038 36.5917 49.9689C35.8878 49.7455 35.1321 49.7455 34.4281 49.9689C33.8441 48.4226 32.3632 47.4 30.7103 47.4016C29.1108 47.4102 27.6682 48.3652 27.0356 49.8343C26.9267 49.8254 26.8219 49.8014 26.7106 49.8014C24.5115 49.7916 22.7207 51.5665 22.7109 53.7656C22.7056 54.9603 23.237 56.0943 24.1585 56.8547C22.2609 57.9108 21.0919 59.9194 21.1111 62.0911V68.2C21.1108 68.6415 21.4685 68.9996 21.9101 68.9999C21.9104 68.9999 21.9107 68.9999 21.911 68.9999H68.3073C68.7489 69.0002 69.107 68.6424 69.1073 68.2009C69.1073 68.2006 69.1073 68.2003 69.1073 68.2V62.0911C69.1265 59.9195 67.9576 57.9109 66.0598 56.8548ZM63.5077 51.4014C64.8325 51.4028 65.9061 52.4764 65.9075 53.8012C65.9075 55.1266 64.8331 56.201 63.5077 56.201C62.1823 56.201 61.1079 55.1266 61.1079 53.8012C61.1079 52.4758 62.1823 51.4014 63.5077 51.4014ZM59.508 49.0016C60.3988 49.0074 61.2136 49.5042 61.6269 50.2933C60.3316 50.9807 59.5182 52.3238 59.5091 53.7902C59.2315 53.7916 58.9555 53.7457 58.6932 53.6543C58.6497 52.5044 58.1097 51.4298 57.213 50.7086C57.5139 49.6928 58.4488 48.9975 59.508 49.0016ZM54.7084 51.4014C56.0332 51.4028 57.1068 52.4764 57.1082 53.8012C57.1082 55.1266 56.0338 56.201 54.7084 56.201C53.383 56.201 52.3086 55.1266 52.3086 53.8012C52.3086 52.4758 53.383 51.4014 54.7084 51.4014ZM49.9088 49.0016C50.968 48.9975 51.9029 49.6928 52.2037 50.7085C51.3121 51.426 50.7733 52.4931 50.7253 53.6366C50.1992 53.8236 49.6247 53.8245 49.0981 53.639C49.051 52.4896 48.5114 51.416 47.6171 50.6924C47.9239 49.6846 48.8554 48.9973 49.9088 49.0016ZM43.0476 52.5681C43.4807 51.8426 44.2642 51.3992 45.1092 51.4014C45.5392 51.3998 45.9615 51.5169 46.3294 51.7397C47.4644 52.4171 47.8353 53.8864 47.1578 55.0214C46.4804 56.1564 45.0111 56.5273 43.8761 55.8499C42.7411 55.1724 42.3702 53.7031 43.0476 52.5681ZM40.3096 49.0016C41.3688 48.9975 42.3037 49.6928 42.6045 50.7085C41.7128 51.426 41.1741 52.4931 41.1261 53.6366C40.5978 53.8243 40.0212 53.8243 39.4929 53.6366C39.4449 52.4932 38.9062 51.426 38.0145 50.7085C38.3154 49.6928 39.2503 48.9975 40.3096 49.0016ZM35.5099 51.4014C36.8347 51.4028 37.9083 52.4764 37.9097 53.8012C37.9097 55.1266 36.8353 56.201 35.5099 56.201C34.1845 56.201 33.1101 55.1266 33.1101 53.8012C33.1101 52.4758 34.1845 51.4014 35.5099 51.4014ZM30.7103 49.0016C31.7695 48.9975 32.7045 49.6928 33.0052 50.7085C32.1085 51.4297 31.5685 52.5043 31.525 53.6542C31.2628 53.7456 30.9869 53.7916 30.7091 53.7901C30.7 52.3237 29.8867 50.9807 28.5914 50.2932C29.0047 49.5043 29.8196 49.0075 30.7103 49.0016ZM26.7106 51.4014C28.036 51.4014 29.1104 52.4758 29.1104 53.8012C29.1104 55.1266 28.036 56.201 26.7106 56.201C25.3858 56.1996 24.3122 55.126 24.3108 53.8012C24.3108 52.4758 25.3852 51.4014 26.7106 51.4014ZM29.9104 62.0912V67.4001H22.7109V62.0912C22.6364 59.804 24.4239 57.8866 26.7106 57.8009C28.2334 57.8288 29.6061 58.7252 30.2438 60.1083C30.0242 60.7464 29.9115 61.4164 29.9104 62.0912ZM29.2582 56.8586C29.7436 56.4609 30.1288 55.9546 30.3824 55.3806C30.4916 55.3895 30.6005 55.4011 30.7103 55.4011C31.0761 55.4003 31.44 55.3494 31.7918 55.2499C32.0393 55.8745 32.4403 56.4264 32.9577 56.8548C32.2315 57.2505 31.6001 57.7996 31.1073 58.4639C30.6155 57.8002 29.9844 57.2523 29.2582 56.8586ZM39.5096 62.0912V67.4001H31.5102V62.0912C31.4357 59.804 33.2232 57.8866 35.5099 57.8009C37.7966 57.8866 39.5843 59.804 39.5096 62.0912ZM38.062 56.8548C38.5795 56.4264 38.9805 55.8745 39.228 55.2499C39.935 55.4515 40.6842 55.4515 41.3912 55.2499C41.6386 55.8745 42.0396 56.4264 42.5571 56.8548C41.6158 57.3703 40.8374 58.1386 40.3096 59.0729C39.7817 58.1386 39.0033 57.3703 38.062 56.8548ZM49.1089 62.0912V67.4001H41.1095V62.0912C41.0349 59.804 42.8225 57.8866 45.1092 57.8009C47.3959 57.8866 49.1836 59.804 49.1089 62.0912ZM47.6613 56.8548C48.1787 56.4264 48.5797 55.8745 48.8273 55.2499C49.5342 55.4515 50.2835 55.4515 50.9904 55.2499C51.2379 55.8745 51.6389 56.4264 52.1563 56.8548C51.2151 57.3703 50.4367 58.1386 49.9088 59.0729C49.3809 58.1386 48.6025 57.3703 47.6613 56.8548ZM58.7081 62.0912V67.4001H50.7087V62.0912C50.5537 59.8822 52.2187 57.9658 54.4277 57.8108C56.6367 57.6557 58.5531 59.3208 58.7081 61.5298C58.7212 61.7167 58.7212 61.9043 58.7081 62.0912ZM59.1111 58.4639C58.6182 57.7997 57.9868 57.2506 57.2605 56.8548C57.778 56.4264 58.1789 55.8744 58.4265 55.2499C58.7784 55.3494 59.1424 55.4003 59.508 55.4011C59.6178 55.4011 59.7268 55.3895 59.8359 55.3806C60.0896 55.9546 60.4747 56.4608 60.9601 56.8586C60.234 57.2523 59.6028 57.8002 59.1111 58.4639ZM67.5074 62.0912V67.4001H60.308V62.0912C60.3069 61.4163 60.1942 60.7464 59.9745 60.1082C60.6122 58.7251 61.9849 57.8287 63.5077 57.8008C65.7944 57.8866 67.5821 59.804 67.5074 62.0912Z" fill="#FABB18"/>
<path d="M54.6117 22.8815C54.5838 22.8529 54.5555 22.8246 54.5269 22.7966C52.0898 20.4011 48.1826 20.4011 45.7455 22.7966L45.1097 23.4255L44.4739 22.7966C42.0368 20.4011 38.1296 20.4011 35.6925 22.7966C33.3502 25.0921 33.3122 28.8517 35.6077 31.1939C35.6365 31.2233 35.6655 31.2523 35.6949 31.2811L44.5497 39.9734C44.8608 40.2785 45.3589 40.2785 45.67 39.9734L54.5271 31.2788C56.8691 28.9833 56.9072 25.2238 54.6117 22.8815ZM53.4737 30.0694C53.4508 30.0929 53.4276 30.1161 53.4041 30.139L45.1096 38.2813L36.8173 30.1414C35.1032 28.467 35.071 25.72 36.7454 24.0059C36.7691 23.9817 36.793 23.9577 36.8173 23.934C38.6301 22.153 41.5359 22.153 43.3487 23.934L44.547 25.1198C44.8588 25.4276 45.3602 25.4276 45.672 25.1198L46.8703 23.934C48.6831 22.153 51.5889 22.153 53.4017 23.934C55.1159 25.6084 55.1481 28.3553 53.4737 30.0694Z" fill="#FABB18"/>
<path d="M32.9279 34.3516C32.8541 34.2711 32.7769 34.1938 32.6963 34.12C31.266 32.8156 29.1362 32.6391 27.5108 33.6903C25.8851 32.6399 23.7559 32.8163 22.3253 34.12C20.8019 35.5155 20.6982 37.8818 22.0937 39.4052C22.1675 39.4857 22.2447 39.563 22.3253 39.6367L26.964 43.9856C27.112 44.1249 27.3076 44.2024 27.5109 44.202C27.7141 44.2024 27.9098 44.1249 28.0577 43.9856L32.6965 39.6367C34.2198 38.2413 34.3235 35.8749 32.9279 34.3516ZM31.759 38.3134C31.7096 38.3681 31.6574 38.4202 31.6027 38.4696L27.5108 42.3052L23.4189 38.4696C22.9713 38.061 22.7147 37.4837 22.7112 36.8776C22.7149 36.2719 22.9715 35.6953 23.4189 35.2871C24.4232 34.3716 25.9596 34.3716 26.9639 35.2871C27.2712 35.5762 27.7504 35.5762 28.0575 35.2871C29.0619 34.3716 30.5982 34.3716 31.6026 35.2871C32.4815 36.0796 32.5515 37.4345 31.759 38.3134Z" fill="#FABB18"/>
<path d="M68.1251 34.3515C68.0513 34.271 67.9741 34.1937 67.8935 34.1199C66.4633 32.8154 64.3334 32.639 62.7081 33.6903C61.0824 32.6399 58.9532 32.8162 57.5226 34.1199C55.9992 35.5154 55.8955 37.8817 57.291 39.4051C57.3648 39.4856 57.442 39.5629 57.5226 39.6367L62.1613 43.9856C62.4688 44.274 62.9475 44.274 63.2549 43.9856L67.8936 39.6367C69.417 38.2412 69.5207 35.8749 68.1251 34.3515ZM66.9562 38.3133C66.9068 38.3681 66.8546 38.4202 66.7999 38.4696L62.7081 42.3052L58.6162 38.4696C57.7374 37.6771 57.6674 36.3222 58.4599 35.4433C58.5093 35.3885 58.5614 35.3364 58.6162 35.287C59.6205 34.3715 61.1569 34.3715 62.1612 35.287C62.4685 35.5761 62.9476 35.5761 63.2548 35.287C64.2591 34.3715 65.7955 34.3715 66.7998 35.287C67.6788 36.0796 67.7488 37.4345 66.9562 38.3133Z" fill="#FABB18"/>
</g>
<defs>
<clipPath id="clip0_277_782">
<rect width="48" height="48" fill="white" transform="translate(21.1094 21)"/>
</clipPath>
</defs>
</svg>
