<svg width="20" height="20" viewBox="0 0 20 20" fill="none" xmlns="http://www.w3.org/2000/svg">
<path d="M12.5 18.9584H7.50002C2.97502 18.9584 1.04169 17.025 1.04169 12.5V7.50002C1.04169 2.97502 2.97502 1.04169 7.50002 1.04169H12.5C17.025 1.04169 18.9584 2.97502 18.9584 7.50002V12.5C18.9584 17.025 17.025 18.9584 12.5 18.9584ZM7.50002 2.29169C3.65835 2.29169 2.29169 3.65835 2.29169 7.50002V12.5C2.29169 16.3417 3.65835 17.7084 7.50002 17.7084H12.5C16.3417 17.7084 17.7084 16.3417 17.7084 12.5V7.50002C17.7084 3.65835 16.3417 2.29169 12.5 2.29169H7.50002Z" fill="white"/>
<path d="M9.99998 13.5416C8.04998 13.5416 6.45831 11.95 6.45831 9.99998C6.45831 8.04998 8.04998 6.45831 9.99998 6.45831C11.95 6.45831 13.5416 8.04998 13.5416 9.99998C13.5416 11.95 11.95 13.5416 9.99998 13.5416ZM9.99998 7.70831C8.73331 7.70831 7.70831 8.73331 7.70831 9.99998C7.70831 11.2666 8.73331 12.2916 9.99998 12.2916C11.2666 12.2916 12.2916 11.2666 12.2916 9.99998C12.2916 8.73331 11.2666 7.70831 9.99998 7.70831Z" fill="white"/>
<path d="M14.1666 6.24998C14.0583 6.24998 13.95 6.22498 13.85 6.18331C13.75 6.14165 13.6583 6.08331 13.575 6.00831C13.5 5.92498 13.4333 5.83331 13.3916 5.73331C13.35 5.63331 13.3333 5.52498 13.3333 5.41665C13.3333 5.30831 13.35 5.19998 13.3916 5.09998C13.4416 4.99165 13.5 4.90831 13.575 4.82498C13.6166 4.79165 13.6583 4.74998 13.7 4.72498C13.75 4.69165 13.8 4.66665 13.85 4.64998C13.9 4.62498 13.95 4.60831 14.0083 4.59998C14.275 4.54165 14.5583 4.63331 14.7583 4.82498C14.8333 4.90831 14.8916 4.99165 14.9333 5.09998C14.975 5.19998 15 5.30831 15 5.41665C15 5.52498 14.975 5.63331 14.9333 5.73331C14.8916 5.83331 14.8333 5.92498 14.7583 6.00831C14.675 6.08331 14.5833 6.14165 14.4833 6.18331C14.3833 6.22498 14.275 6.24998 14.1666 6.24998Z" fill="white"/>
</svg>
