<svg width="34" height="34" viewBox="0 0 34 34" fill="none" xmlns="http://www.w3.org/2000/svg">
<path d="M23.9833 0.333313H10.0167C3.95 0.333313 0.333332 3.94998 0.333332 10.0166V23.9666C0.333332 30.05 3.95 33.6666 10.0167 33.6666H23.9667C30.0333 33.6666 33.65 30.05 33.65 23.9833V10.0166C33.6667 3.94998 30.05 0.333313 23.9833 0.333313ZM25.3333 26.1166C22.4833 26.1166 19.8167 24.8833 17.6833 22.6C15.2667 24.7833 12.1167 26.1166 8.66667 26.1166C7.98333 26.1166 7.41667 25.55 7.41667 24.8666C7.41667 24.1833 7.98333 23.6166 8.66667 23.6166C14.45 23.6166 19.2333 19.0333 19.85 13.1666H17H8.68333C8 13.1666 7.43333 12.6 7.43333 11.9166C7.43333 11.2333 8 10.6833 8.68333 10.6833H15.75V9.13331C15.75 8.44998 16.3167 7.88331 17 7.88331C17.6833 7.88331 18.25 8.44998 18.25 9.13331V10.6833H21.0667C21.1 10.6833 21.1333 10.6666 21.1667 10.6666C21.2 10.6666 21.2333 10.6833 21.2667 10.6833H25.3167C26 10.6833 26.5667 11.25 26.5667 11.9333C26.5667 12.6166 26 13.1833 25.3167 13.1833H22.35C22.1 16.0333 21.0333 18.65 19.4 20.7833C21.0667 22.6333 23.15 23.6333 25.3333 23.6333C26.0167 23.6333 26.5833 24.2 26.5833 24.8833C26.5833 25.5666 26.0167 26.1166 25.3333 26.1166Z" fill="url(#paint0_linear_217_109)"/>
<defs>
<linearGradient id="paint0_linear_217_109" x1="0.333332" y1="10.8095" x2="34.3636" y2="12.4821" gradientUnits="userSpaceOnUse">
<stop stop-color="#2C97DE"/>
<stop offset="1" stop-color="#14459F"/>
</linearGradient>
</defs>
</svg>
