<svg width="60" height="60" viewBox="0 0 60 60" fill="none" xmlns="http://www.w3.org/2000/svg">
<rect x="0.559814" width="58.6178" height="60" rx="10" fill="#7B0076"/>
<path fill-rule="evenodd" clip-rule="evenodd" d="M18.5713 29.375C18.5713 35.4156 23.3554 40.3125 29.2568 40.3125C35.1583 40.3125 39.9424 35.4156 39.9424 29.375C39.9424 23.3344 35.1583 18.4375 29.2568 18.4375C23.3554 18.4375 18.5713 23.3344 18.5713 29.375ZM29.2568 42.1875C22.3437 42.1875 16.7395 36.4511 16.7395 29.375C16.7395 22.2989 22.3437 16.5625 29.2568 16.5625C36.17 16.5625 41.7742 22.2989 41.7742 29.375C41.7742 32.5756 40.6276 35.5022 38.732 37.7478L42.7271 41.8371C43.0848 42.2032 43.0848 42.7968 42.7271 43.1629C42.3694 43.529 41.7895 43.529 41.4318 43.1629L37.4367 39.0736C35.2429 41.0139 32.3837 42.1875 29.2568 42.1875Z" fill="#EFEFEF"/>
</svg>
