<svg width="90" height="90" viewBox="0 0 90 90" fill="none" xmlns="http://www.w3.org/2000/svg">
<circle opacity="0.2" cx="45" cy="45" r="45" fill="#BECBE9"/>
<g clip-path="url(#clip0_277_728)">
<path d="M68.997 46.9277C68.9416 44.2904 68.0843 41.7834 66.518 39.6776C65.7233 38.6083 64.7628 37.6736 63.663 36.8991C62.5628 36.1244 61.3589 35.5351 60.0845 35.1474C57.5732 34.3827 54.9238 34.4209 52.4232 35.2577C49.868 36.1124 47.6951 37.7321 46.1394 39.9415C45.9556 40.2026 45.7807 40.4717 45.6196 40.7414C44.4059 42.7722 43.7935 45.0968 43.8486 47.4634C43.9131 50.2783 44.9305 53.0188 46.713 55.1797C47.4257 56.0444 48.2563 56.8133 49.1817 57.465C50.1072 58.1167 51.111 58.6393 52.1646 59.0186C53.5294 59.5106 54.971 59.757 56.4151 59.757C57.7599 59.757 59.1069 59.5433 60.3955 59.115C62.6415 58.3693 64.6234 57.0096 66.1272 55.1823C66.3274 54.9389 66.5219 54.6834 66.7054 54.4227L66.7053 54.4228C68.2609 52.2131 69.0536 49.6215 68.997 46.9277ZM62.8321 38.0787C63.4046 38.482 63.933 38.9352 64.4153 39.4314C63.5733 39.4088 62.74 39.3095 62.0808 39.1459C61.7043 38.5801 61.3299 37.829 61.0248 37.0439C61.6546 37.3308 62.2594 37.6755 62.8321 38.0787ZM53.2966 36.4961C54.3246 36.195 55.3772 36.044 56.4294 36.044C57.3889 36.044 58.3483 36.1697 59.2882 36.4207C59.6389 37.6108 60.1829 38.8429 60.7628 39.7642L59.1924 41.9945C57.5104 41.6202 55.0947 41.5766 53.4514 42.0642L52.022 40.3684C52.5891 39.2802 53.0676 37.8281 53.2966 36.4961ZM60.8076 48.5113C59.9561 49.5957 57.9515 51.1785 56.4813 51.7601C54.7478 51.199 53.2033 50.1111 52.091 48.6682C52.1311 47.0857 52.8272 44.8347 53.6898 43.502C55.0706 43.0256 57.5527 43.0736 59.0541 43.444C59.9086 44.7317 60.7898 47.0504 60.8076 48.5113ZM51.696 37.0995C51.4474 38.1018 51.0706 39.1156 50.6568 39.8622C49.8053 40.1501 48.6692 40.3442 47.5933 40.3992C48.6867 38.973 50.0844 37.8513 51.696 37.0995ZM47.0101 53.1327C46.1841 51.8226 45.6369 50.3434 45.4088 48.8055C46.1689 49.3298 46.8885 49.9382 47.3872 50.4913C47.3816 51.2583 47.241 52.2162 47.0101 53.1327ZM45.2893 47.0221C45.3134 45.2116 45.7786 43.4405 46.6462 41.853C46.7576 41.8562 46.8696 41.8588 46.9835 41.8588C48.301 41.8588 49.7737 41.6486 50.9156 41.2945L52.3246 42.9662C51.4237 44.4764 50.7497 46.677 50.6578 48.4153L48.306 49.3605C47.5219 48.5365 46.3935 47.6611 45.2893 47.0221ZM50.0124 56.2852C49.3041 55.7865 48.6593 55.2103 48.0901 54.5694C48.5127 53.3283 48.788 51.879 48.8255 50.7067L51.1335 49.7792C52.3446 51.2608 53.9563 52.3957 55.7595 53.0366L55.664 55.5219C54.5727 55.9523 53.3011 56.7 52.2751 57.5163C51.4803 57.1967 50.7206 56.7839 50.0124 56.2852ZM53.9917 58.0489C54.7767 57.5228 55.6313 57.0674 56.3516 56.8034C57.0406 57.0866 57.8562 57.5591 58.606 58.0982C57.0811 58.4018 55.5039 58.3851 53.9917 58.0489ZM60.3254 57.6097C59.3515 56.7853 58.1469 56.018 57.1068 55.5574L57.2041 53.021C58.8116 52.326 60.7419 50.8096 61.7651 49.6161L63.8215 50.3819C63.8774 51.6794 64.2252 53.286 64.7344 54.5899C63.5318 55.9419 62.0212 56.9769 60.3254 57.6097ZM64.3199 49.0279L62.2416 48.2539C62.1469 46.5422 61.2916 44.2826 60.3723 42.8252L61.9426 40.595C62.7768 40.7798 63.7839 40.8797 64.7781 40.8797C65.0502 40.8797 65.3209 40.8715 65.587 40.8563C66.7467 42.5338 67.4159 44.4773 67.5369 46.5225C66.36 47.1866 65.1536 48.1268 64.3199 49.0279ZM65.7838 53.2083C65.4729 52.1762 65.2725 51.041 65.2565 50.1427C65.8204 49.5011 66.6481 48.8044 67.5081 48.2327C67.3436 50.0036 66.7584 51.6979 65.7838 53.2083Z" fill="#F23936"/>
<path d="M44.507 35.2833C44.598 35.3214 44.6924 35.3394 44.7852 35.3394C45.0673 35.3394 45.3353 35.1729 45.451 34.8962L50.6769 22.4074C50.8308 22.0398 50.6574 21.6172 50.2899 21.4634C49.9225 21.3097 49.4997 21.4828 49.3459 21.8504L47.0947 27.2302L35.5338 24.4237L36.0072 22.2851C36.0934 21.8961 35.8478 21.5109 35.4588 21.4247C35.0701 21.3386 34.6846 21.5842 34.5985 21.9733L30.7892 39.179C30.6312 39.1676 30.4718 39.2071 30.3371 39.2971L24.8258 42.9714C24.7835 42.9987 24.7432 43.0305 24.7061 43.0677L23.6019 44.1718C23.601 44.1728 23.6003 44.1739 23.5992 44.1748L21.2112 46.5627C21.076 46.6979 21 46.8814 21 47.0728C21 47.2641 21.076 47.4477 21.2112 47.5828L22.1419 48.5135L21.2708 49.3846C20.9889 49.6663 20.9889 50.1231 21.2707 50.4048C21.4116 50.5457 21.5962 50.6161 21.7808 50.6161C21.9654 50.6161 22.1501 50.5457 22.2909 50.4048L23.1622 49.5337L25.9808 52.3523L25.1096 53.2234C24.8279 53.5051 24.8279 53.962 25.1096 54.2436C25.2505 54.3844 25.4352 54.4549 25.6198 54.4549C25.8044 54.4549 25.9891 54.3845 26.13 54.2436L27.0011 53.3725L29.8197 56.1911L28.9486 57.0621C28.6668 57.3438 28.6668 57.8006 28.9485 58.0823C29.0894 58.2232 29.274 58.2936 29.4587 58.2936C29.6433 58.2936 29.828 58.2232 29.9688 58.0823L30.8399 57.2112L33.6584 60.0297L32.7873 60.9008C32.5056 61.1825 32.5056 61.6393 32.7874 61.9211C32.9282 62.0619 33.1129 62.1323 33.2975 62.1323C33.4821 62.1323 33.6668 62.0619 33.8077 61.921L34.6787 61.0498L36.5781 62.9492C36.709 63.0802 37.0439 63.4092 37.5247 63.8407L36.626 64.7394C36.3443 65.0211 36.3443 65.4779 36.626 65.7596C36.7669 65.9004 36.9516 65.9709 37.1362 65.9709C37.3208 65.9709 37.5054 65.9005 37.6463 65.7596L38.6249 64.781C39.4949 65.4884 40.5628 66.2713 41.6896 66.899L41.3127 67.4759C41.0948 67.8095 41.1885 68.2565 41.5221 68.4745C41.6439 68.5541 41.7806 68.592 41.9161 68.592C42.1515 68.592 42.3823 68.4769 42.5207 68.265L42.9966 67.5366C43.8322 67.8818 44.6704 68.0986 45.4581 68.0985C45.9559 68.0984 46.434 68.0118 46.8777 67.816C46.9594 67.7799 47.0336 67.7291 47.0966 67.666L48.6611 66.1017C48.6775 66.0852 48.6934 66.0678 48.7082 66.0497C48.8012 65.9367 49.2592 65.3144 49.1446 64.1638C48.9628 62.3424 47.469 60.2594 44.703 57.9708L44.3522 56.8602C44.2323 56.4803 43.8269 56.2695 43.447 56.3895C43.0671 56.5095 42.8563 56.9148 42.9763 57.2948L43.3915 58.6096C43.4338 58.7438 43.5144 58.8626 43.6236 58.9515C46.8307 61.5665 47.5919 63.3057 47.7003 64.261C45.5566 64.1652 42.2942 61.8438 39.9888 59.5385L30.9342 50.4839C30.6524 50.2022 30.1957 50.2022 29.9139 50.4839C29.6322 50.7657 29.6322 51.2225 29.9139 51.5041L38.9685 60.5587C39.4851 61.0753 43.5923 65.086 47.0799 65.6422L46.1807 66.5414C45.2799 66.8587 43.8528 66.4902 42.1388 65.4937C40.6785 64.6447 38.9812 63.3121 37.5981 61.9291L22.7417 47.0728L24.1121 45.7024L28.356 49.9464C28.4969 50.0873 28.6815 50.1577 28.8662 50.1577C29.0508 50.1577 29.2355 50.0873 29.3764 49.9464C29.6581 49.6647 29.6581 49.2078 29.3764 48.9262L25.1325 44.6822L25.6759 44.1388L30.357 41.0179C30.8256 42.2408 31.8559 44.4481 33.7237 46.3159C34.9768 47.569 36.5713 47.9679 38.3348 47.4699C38.8635 47.3205 39.3301 47.1101 39.697 46.9132L40.4341 49.2464L39.5404 49.4006C39.1478 49.4683 38.8843 49.8414 38.9521 50.2342C39.0126 50.5854 39.3175 50.8332 39.6622 50.8332C39.7028 50.8332 39.7442 50.8297 39.7855 50.8226L40.8726 50.6351L40.9853 50.9921L40.1296 51.1505C39.7378 51.2231 39.479 51.5995 39.5514 51.9913C39.6158 52.3386 39.919 52.5815 40.26 52.5815C40.3036 52.5815 40.3478 52.5775 40.3923 52.5693L41.4231 52.3783L41.5348 52.7323L40.6355 52.8988C40.2437 52.9713 39.9848 53.3477 40.0573 53.7395C40.1216 54.0868 40.4249 54.3298 40.7659 54.3298C40.8095 54.3298 40.8537 54.3257 40.8982 54.3176L41.9726 54.1185L42.3623 55.3521C42.4823 55.7321 42.8879 55.9428 43.2675 55.8228C43.6475 55.7027 43.8582 55.2975 43.7382 54.9176L43.4019 53.8528C43.7828 53.7716 44.0321 53.4019 43.9608 53.0167C43.8881 52.6249 43.5118 52.3659 43.1199 52.4386L42.9643 52.4675L42.8526 52.1136L42.8767 52.1092C43.2684 52.0366 43.5273 51.6602 43.4548 51.2684C43.3822 50.8767 43.0058 50.6179 42.614 50.6904L42.4148 50.7273L42.3075 50.3877L42.4539 50.3624C42.8466 50.2948 43.11 49.9216 43.0422 49.5288C42.9746 49.1362 42.6011 48.8727 42.2087 48.9404L41.8688 48.999L40.8713 45.8407L44.5298 37.0979C44.6836 36.7303 44.5103 36.3077 44.1428 36.154C43.7749 35.9999 43.3524 36.1734 43.1987 36.541L39.5162 45.3414C38.9168 45.7547 36.5926 47.1443 34.7442 45.2958C33.2687 43.8204 32.3633 42.071 31.8801 40.9273L34.3148 29.9303C34.5537 30.0164 34.8391 30.1088 35.1822 30.2108C37.1268 30.7884 40.4131 31.5032 44.9579 32.3372L44.12 34.3397C43.9662 34.7069 44.1395 35.1296 44.507 35.2833ZM34.6295 28.5088L35.222 25.8328L46.5308 28.5782L45.5281 30.9743C37.9063 29.5837 35.4154 28.8183 34.6295 28.5088Z" fill="#F23936"/>
</g>
<defs>
<clipPath id="clip0_277_728">
<rect width="48" height="48" fill="white" transform="translate(21 21)"/>
</clipPath>
</defs>
</svg>
