<svg width="60" height="60" viewBox="0 0 60 60" fill="none" xmlns="http://www.w3.org/2000/svg">
<rect x="0.665039" width="58.6178" height="60" rx="10" fill="#00667B"/>
<path d="M29.9745 18.75C31.3234 18.75 32.4169 19.8693 32.4169 21.25L32.4169 38.75C32.4169 40.1307 31.3234 41.25 29.9745 41.25C28.6256 41.25 27.5321 40.1307 27.5321 38.75L27.5321 21.25C27.5321 19.8693 28.6256 18.75 29.9745 18.75Z" stroke="#EFEFEF" stroke-width="1.5"/>
<path d="M20.2049 30C21.5538 30 22.6473 31.1193 22.6473 32.5L22.6473 38.75C22.6473 40.1307 21.5538 41.25 20.2049 41.25C18.856 41.25 17.7625 40.1307 17.7625 38.75L17.7625 32.5C17.7625 31.1193 18.856 30 20.2049 30Z" stroke="#EFEFEF" stroke-width="1.5"/>
<path d="M39.7441 25C41.093 25 42.1865 26.1193 42.1865 27.5V38.75C42.1865 40.1307 41.093 41.25 39.7441 41.25C38.3952 41.25 37.3017 40.1307 37.3017 38.75V27.5C37.3017 26.1193 38.3952 25 39.7441 25Z" stroke="#EFEFEF" stroke-width="1.5"/>
</svg>
