<svg width="16" height="16" viewBox="0 0 16 16" fill="none" xmlns="http://www.w3.org/2000/svg">
<path d="M8 8.49998C5.88667 8.49998 4.16667 6.77998 4.16667 4.66665C4.16667 2.55331 5.88667 0.833313 8 0.833313C10.1133 0.833313 11.8333 2.55331 11.8333 4.66665C11.8333 6.77998 10.1133 8.49998 8 8.49998ZM8 1.83331C6.44 1.83331 5.16667 3.10665 5.16667 4.66665C5.16667 6.22665 6.44 7.49998 8 7.49998C9.56 7.49998 10.8333 6.22665 10.8333 4.66665C10.8333 3.10665 9.56 1.83331 8 1.83331Z" fill="white"/>
<path d="M10.5467 15.1667C10.2934 15.1667 10.0534 15.0733 9.88004 14.9C9.67337 14.6933 9.58004 14.3933 9.6267 14.08L9.75337 13.18C9.7867 12.9467 9.92671 12.6734 10.0934 12.5L12.4534 10.14C13.4 9.19337 14.2334 9.73337 14.64 10.14C14.9867 10.4867 15.1667 10.86 15.1667 11.2333C15.1667 11.6133 14.9934 11.9667 14.64 12.32L12.28 14.68C12.1134 14.8467 11.8334 14.9867 11.6 15.02L10.7 15.1467C10.6467 15.16 10.6 15.1667 10.5467 15.1667ZM13.54 10.6133C13.42 10.6133 13.3134 10.6934 13.16 10.8467L10.8 13.2067C10.78 13.2267 10.7467 13.2933 10.7467 13.32L10.6267 14.1533L11.46 14.0333C11.4867 14.0267 11.5534 13.9934 11.5734 13.9734L13.9334 11.6133C14.04 11.5067 14.1667 11.3533 14.1667 11.2333C14.1667 11.1333 14.0867 10.9934 13.9334 10.8467C13.7734 10.6867 13.6534 10.6133 13.54 10.6133Z" fill="white"/>
<path d="M13.9467 12.8133C13.9001 12.8133 13.8534 12.8066 13.8134 12.7933C12.9334 12.5466 12.2334 11.8467 11.9867 10.9667C11.9134 10.7 12.0667 10.4267 12.3334 10.3533C12.6001 10.28 12.8734 10.4333 12.9467 10.7C13.1001 11.2466 13.5334 11.68 14.0801 11.8333C14.3467 11.9066 14.5001 12.1866 14.4268 12.4466C14.3668 12.6666 14.1667 12.8133 13.9467 12.8133Z" fill="white"/>
<path d="M2.27344 15.1667C2.0001 15.1667 1.77344 14.94 1.77344 14.6667C1.77344 11.82 4.56679 9.5 8.00012 9.5C8.72679 9.5 9.44678 9.60668 10.1201 9.80668C10.3868 9.88668 10.5335 10.1667 10.4535 10.4267C10.3735 10.6933 10.0935 10.84 9.83346 10.76C9.24679 10.5867 8.63346 10.4933 8.00012 10.4933C5.12012 10.4933 2.77344 12.36 2.77344 14.66C2.77344 14.94 2.54677 15.1667 2.27344 15.1667Z" fill="white"/>
</svg>
