<svg width="8" height="6" viewBox="0 0 8 6" fill="none" xmlns="http://www.w3.org/2000/svg">
<path fill-rule="evenodd" clip-rule="evenodd" d="M7.65682 1.17087C7.37049 0.886241 6.90806 0.886241 6.62174 1.17087L3.98632 3.76958L1.3876 1.17087C1.10128 0.886241 0.638848 0.886241 0.352522 1.17087C0.213547 1.30871 0.135376 1.49634 0.135376 1.69208C0.135376 1.88782 0.213547 2.07545 0.352522 2.21329L3.46511 5.32587C3.60295 5.46485 3.79058 5.54302 3.98632 5.54302C4.18205 5.54302 4.36969 5.46485 4.50753 5.32587L7.65682 2.21329C7.79579 2.07545 7.87396 1.88782 7.87396 1.69208C7.87396 1.49634 7.79579 1.30871 7.65682 1.17087Z" fill="#474849"/>
</svg>
