<svg width="20" height="16" viewBox="0 0 20 16" fill="none" xmlns="http://www.w3.org/2000/svg">
<path d="M19.1553 1.79581C18.437 2.11507 17.6787 2.3146 16.8806 2.43432C17.6787 1.95544 18.3173 1.19721 18.5966 0.279348C17.8384 0.718324 17.0003 1.03758 16.0825 1.23711C15.3641 0.478883 14.3266 0 13.2092 0C11.0542 0 9.2983 1.7559 9.2983 3.91087C9.2983 4.23013 9.33821 4.50948 9.41802 4.78883C6.18557 4.6292 3.27236 3.07283 1.31693 0.678417C0.997672 1.27702 0.798138 1.91553 0.798138 2.63385C0.798138 3.99069 1.47655 5.18789 2.55404 5.90622C1.91553 5.86631 1.31693 5.70668 0.758231 5.42734V5.46724C0.758231 7.38277 2.11506 8.97905 3.91087 9.33821C3.59162 9.41802 3.23246 9.45793 2.8733 9.45793C2.63385 9.45793 2.35451 9.41802 2.11506 9.37812C2.63385 10.9345 4.0705 12.0918 5.7865 12.0918C4.42966 13.1294 2.75357 13.7679 0.917858 13.7679C0.598603 13.7679 0.279348 13.7679 0 13.728C1.7559 14.8454 3.79115 15.4839 6.02594 15.4839C13.2491 15.4839 17.1999 9.49784 17.1999 4.30994C17.1999 4.15032 17.1999 3.95078 17.1999 3.79115C17.9581 3.27236 18.6365 2.59395 19.1553 1.79581Z" fill="white"/>
</svg>
