<svg width="62" height="60" viewBox="0 0 62 60" fill="none" xmlns="http://www.w3.org/2000/svg">
<rect x="0.880371" width="60.1899" height="60" rx="3" fill="#D33441"/>
<path d="M33.4675 17.7468L33.6153 17.0115L33.4675 17.7468ZM43.2676 27.5159L44.0027 27.3673L43.2676 27.5159ZM27.3792 21.0103C27.7832 20.9189 28.0366 20.5173 27.9452 20.1133C27.8539 19.7093 27.4523 19.4559 27.0483 19.5472L27.3792 21.0103ZM41.4589 33.9165C41.5508 33.5126 41.2979 33.1106 40.8941 33.0187C40.4902 32.9268 40.0882 33.1796 39.9963 33.5835L41.4589 33.9165ZM33.3197 18.4821C37.9511 19.413 41.5993 23.051 42.5325 27.6646L44.0027 27.3673C42.9493 22.1595 38.8364 18.0609 33.6153 17.0115L33.3197 18.4821ZM41.0072 29.25H33.4835V30.75H41.0072V29.25ZM31.7256 27.5V20H30.2256V27.5H31.7256ZM33.4835 29.25C32.5104 29.25 31.7256 28.4643 31.7256 27.5H30.2256C30.2256 29.2971 31.6865 30.75 33.4835 30.75V29.25ZM33.6153 17.0115C31.6928 16.6251 30.2256 18.2539 30.2256 20H31.7256C31.7256 18.9846 32.5267 18.3227 33.3197 18.4821L33.6153 17.0115ZM42.5325 27.6646C42.6908 28.4476 42.033 29.25 41.0072 29.25V30.75C42.7517 30.75 44.3918 29.2913 44.0027 27.3673L42.5325 27.6646ZM29.7216 41.75C23.9008 41.75 19.186 37.0468 19.186 31.25H17.686C17.686 37.8796 23.0768 43.25 29.7216 43.25V41.75ZM19.186 31.25C19.186 26.2556 22.6862 22.0718 27.3792 21.0103L27.0483 19.5472C21.6896 20.7594 17.686 25.5364 17.686 31.25H19.186ZM39.9963 33.5835C38.9322 38.2581 34.7364 41.75 29.7216 41.75V43.25C35.4487 43.25 40.2421 39.2618 41.4589 33.9165L39.9963 33.5835Z" fill="#EFEFEF"/>
</svg>
