<svg width="90" height="90" viewBox="0 0 90 90" fill="none" xmlns="http://www.w3.org/2000/svg">
<circle opacity="0.2" cx="45" cy="45" r="45" fill="#008EFF" fill-opacity="0.12"/>
<path d="M63.8738 41.3209C62.7195 39.6235 61.7401 37.8135 60.9507 35.9187C59.5827 32.2716 61.3731 30.086 63.1162 28.8964C63.6688 28.5213 64.0397 27.9325 64.1393 27.2721C64.2389 26.6116 64.0583 25.9396 63.6409 25.4182L62.3362 23.7902C61.7204 23.0205 60.6955 22.7073 59.7546 23.0014C54.6013 24.6477 49.4727 22.9613 46.0783 21.2574C45.4015 20.9142 44.6016 20.9142 43.9247 21.2574C40.5305 22.9622 35.4018 24.647 30.2484 23.0013C29.3074 22.7081 28.2829 23.0215 27.6668 23.791L26.3621 25.4181C25.944 25.9394 25.7629 26.6118 25.8625 27.2726C25.9622 27.9333 26.3336 28.5224 26.8868 28.8972C28.63 30.0867 30.4203 32.2723 29.0523 35.9194C28.2628 37.8139 27.2835 39.6236 26.1292 41.3208C25.4204 42.4455 24.6893 43.6071 24.0605 44.8071C21.6134 49.495 21.7222 55.0068 24.3286 58.8484C25.996 61.2471 28.4634 62.9735 31.2884 63.7178C31.7931 63.861 32.3283 63.9906 32.8883 64.1034L33.6883 64.2634C37.4194 65.0066 41.2793 65.7745 43.848 68.5033C44.147 68.8203 44.5635 69 44.9992 69C45.4349 69 45.8514 68.8203 46.1503 68.5033C48.7223 65.7745 52.5821 65.0066 56.31 64.2634L57.11 64.1034C57.6652 63.9906 58.2028 63.8634 58.71 63.7178C61.5349 62.9735 64.0023 61.2471 65.6698 58.8484C68.2801 55.0085 68.3849 49.495 65.9378 44.8079C65.3162 43.608 64.5826 42.4464 63.8738 41.3209ZM42.7848 59.9355L41.6128 56.3525L42.952 54.6005H47.0511L48.3902 56.3525L47.2183 59.9355C45.7605 60.2795 44.2426 60.2795 42.7848 59.9355ZM41.3585 41.7392L44.2016 43.7368V46.0247L40.9009 48.3446L38.7178 47.7046L37.6977 44.4047C38.6846 43.2335 39.9407 42.3189 41.3585 41.7392ZM46.8671 53.0005H43.136L41.9904 49.535L45.0016 47.4183L48.0127 49.535L46.8671 53.0005ZM36.5386 46.0695L37.1506 48.0479L35.4971 49.2886C35.6474 48.1616 36.0002 47.071 36.5386 46.0695ZM38.2402 49.2295L40.4161 49.8695L41.6657 53.6486L40.3265 55.4005H36.6914C35.9737 54.1564 35.5455 52.7665 35.4387 51.3342L38.2402 49.2295ZM40.1425 57.0004L40.8848 59.2715C39.7336 58.7246 38.7037 57.9523 37.8561 57.0004H40.1425ZM49.8606 57.0004H52.147C51.2993 57.9522 50.2695 58.7244 49.1183 59.2715L49.8606 57.0004ZM53.3117 55.4004H49.6767L48.3375 53.6485L49.5871 49.8702L51.763 49.2302L54.5629 51.3357C54.4573 52.7676 54.0296 54.1571 53.3117 55.4004ZM52.8525 48.0478L53.4645 46.0687C54.0025 47.0704 54.3549 48.1614 54.5045 49.2886L52.8525 48.0478ZM51.2854 47.7031L49.1023 48.3431L45.8015 46.0248V43.7368L48.6446 41.7369C50.062 42.3172 51.3177 43.232 52.3045 44.4032L51.2854 47.7031ZM45.0016 42.3432L43.3056 41.1512C44.4274 40.9507 45.5758 40.9507 46.6975 41.1512L45.0016 42.3432ZM34.0002 62.6946L33.2003 62.5347C32.6842 62.4307 32.1867 62.3107 31.7211 62.1795C29.2589 61.5354 27.1066 60.0355 25.6501 57.9484C23.3654 54.5885 23.2982 49.7206 25.4773 45.5487C26.0733 44.4064 26.7885 43.2728 27.4773 42.176C28.6911 40.3875 29.7193 38.4798 30.546 36.4825C32.3691 31.6187 29.598 28.8148 27.7828 27.5756C27.5977 27.451 27.4737 27.254 27.4413 27.0332C27.4073 26.8137 27.4681 26.5901 27.6085 26.418L28.9173 24.7885C29.0674 24.6004 29.2942 24.4899 29.5349 24.4877C29.6114 24.4879 29.6874 24.4997 29.7604 24.5229C35.2099 26.2644 40.5441 24.6597 44.2016 22.9005V39.4384C38.3436 39.8547 33.8034 44.7277 33.8019 50.6004C33.8019 50.7428 33.8019 50.8797 33.813 50.9796C33.9745 55.8432 37.2604 60.0448 41.9416 61.3737C42.6789 61.5857 43.4364 61.7197 44.2016 61.7737V66.6399C41.3289 64.1594 37.4562 63.3826 34.0002 62.6946ZM64.3514 57.9484C62.8944 60.0353 60.7419 61.5353 58.2795 62.1795C57.814 62.3107 57.3196 62.4307 56.8004 62.5347L56.0004 62.6946C52.5405 63.3834 48.6622 64.1618 45.7991 66.6417V61.7715C46.5625 61.7182 47.3183 61.5855 48.0542 61.3755C52.7239 60.0536 56.0088 55.872 56.1875 51.0222C56.2012 50.8798 56.2012 50.743 56.2012 50.6006C56.2181 44.7206 51.668 39.837 45.8015 39.4385V22.9014C49.4597 24.6613 54.7956 26.2661 60.2426 24.5229C60.5517 24.4295 60.8864 24.5353 61.0858 24.7892L62.3897 26.418C62.5278 26.5919 62.5873 26.8154 62.554 27.0349C62.5208 27.2544 62.3978 27.4502 62.2146 27.5755C60.3994 28.8147 57.6283 31.6186 59.4514 36.4825C60.2783 38.4797 61.3068 40.3874 62.5209 42.1759C63.2129 43.2727 63.9281 44.4063 64.5209 45.5487C66.7025 49.7206 66.6354 54.5877 64.3514 57.9484Z" fill="#008EFF"/>
<path fill-rule="evenodd" clip-rule="evenodd" d="M28.2988 56.1508C26.8717 53.7819 26.6636 50.8734 27.7388 48.3254C27.8935 47.9112 27.6831 47.4501 27.2688 47.2954C26.8546 47.1408 26.3935 47.3512 26.2389 47.7654C25.0085 51.0869 25.2837 54.5564 26.9748 57.0451C27.3448 57.5878 27.7771 58.0853 28.2628 58.5275C28.4742 58.7199 28.7723 58.7848 29.0446 58.6978C29.3169 58.6108 29.5221 58.3851 29.583 58.1058C29.6438 57.8264 29.551 57.5359 29.3395 57.3435C28.9472 56.988 28.5979 56.5877 28.2988 56.1508Z" fill="#008EFF"/>
<path fill-rule="evenodd" clip-rule="evenodd" d="M36.2018 37.8009C36.6435 37.8009 37.0017 37.4427 37.0017 37.0009V33.801H41.0017C41.4435 33.801 41.8016 33.4428 41.8016 33.001C41.8016 32.5592 41.4435 32.201 41.0017 32.201H37.0017V29.0011H41.0017C41.4435 29.0011 41.8016 28.6429 41.8016 28.2011C41.8016 27.7593 41.4435 27.4011 41.0017 27.4011H36.2018C35.7601 27.4011 35.4019 27.7593 35.4019 28.2011V37.0009C35.4018 37.4428 35.76 37.8009 36.2018 37.8009Z" fill="#008EFF"/>
<path fill-rule="evenodd" clip-rule="evenodd" d="M54.6815 33.809C54.244 33.7467 53.839 34.0508 53.7767 34.4882C53.6326 35.469 52.793 36.1971 51.8015 36.2009C50.6999 36.1939 49.8086 35.3026 49.8016 34.2009V31.001C49.8016 29.8965 50.697 29.0011 51.8015 29.0011C52.7933 29.007 53.6327 29.7352 53.7783 30.7163C53.8106 31.0067 53.9987 31.2564 54.269 31.3676C54.5393 31.4788 54.8486 31.4338 55.076 31.2501C55.3034 31.0665 55.4125 30.7735 55.3606 30.4859C55.1009 28.7186 53.5877 27.4071 51.8015 27.4011C49.8143 27.4033 48.2039 29.0138 48.2017 31.001V34.2009C48.2091 36.1861 49.8165 37.7934 51.8015 37.8008C53.5887 37.7947 55.1025 36.4821 55.3614 34.7137C55.3913 34.5035 55.3365 34.2902 55.2089 34.1205C55.0814 33.9507 54.8917 33.8387 54.6815 33.809Z" fill="#008EFF"/>
</svg>
