<svg width="90" height="90" viewBox="0 0 90 90" fill="none" xmlns="http://www.w3.org/2000/svg">
<circle opacity="0.2" cx="45" cy="45" r="45" fill="#14B082" fill-opacity="0.12"/>
<g clip-path="url(#clip0_2_1868)">
<path d="M29.4006 30.5999C31.1678 30.5999 32.6005 29.1672 32.6005 27.3999C32.6005 25.6326 31.1679 24.2 29.4006 24.2C27.6332 24.2 26.2007 25.6327 26.2007 27.3999C26.2007 29.1671 27.6333 30.5999 29.4006 30.5999ZM29.4006 25.7999C30.2842 25.7999 31.0005 26.5163 31.0005 27.3999C31.0005 28.2836 30.2842 28.9999 29.4006 28.9999C28.5169 28.9999 27.8006 28.2836 27.8006 27.3999C27.8006 26.5163 28.5169 25.7999 29.4006 25.7999Z" fill="#14B082"/>
<path d="M47.8001 36.1997C49.5673 36.1997 51 34.7671 51 32.9998C51 31.2324 49.5674 29.7998 47.8001 29.7998C46.0327 29.7998 44.6001 31.2324 44.6001 32.9998C44.6001 34.7671 46.0328 36.1997 47.8001 36.1997ZM47.8001 31.3999C48.6837 31.3999 49.4 32.1162 49.4 32.9998C49.4 33.8835 48.6837 34.5998 47.8001 34.5998C46.9164 34.5998 46.2001 33.8835 46.2001 32.9998C46.2001 32.1162 46.9164 31.3999 47.8001 31.3999Z" fill="#14B082"/>
<path d="M31.8001 50.5994C30.0328 50.5994 28.6001 52.032 28.6001 53.7993C28.6001 55.5666 30.0327 56.9993 31.8001 56.9993C33.5674 56.9993 35 55.5666 35 53.7993C35 52.032 33.5673 50.5994 31.8001 50.5994ZM31.8001 55.3992C30.9164 55.3992 30.2001 54.6829 30.2001 53.7992C30.2001 52.9156 30.9164 52.1993 31.8001 52.1993C32.6837 52.1993 33.4 52.9156 33.4 53.7992C33.4 54.6829 32.6837 55.3992 31.8001 55.3992Z" fill="#14B082"/>
<path fill-rule="evenodd" clip-rule="evenodd" d="M44.0345 47.1651C44.3469 47.4774 44.8533 47.4774 45.1657 47.1651L47.0001 45.3308L48.8344 47.1651C49.1483 47.4682 49.6472 47.464 49.9558 47.1554C50.2644 46.8468 50.2687 46.3478 49.9656 46.0339L48.1312 44.1996L49.9656 42.3653C50.2687 42.0513 50.2644 41.5524 49.9558 41.2438C49.6472 40.9352 49.1483 40.9309 48.8344 41.2341L47.0001 43.0684L45.1657 41.2341C44.8518 40.9309 44.3529 40.9352 44.0443 41.2438C43.7357 41.5524 43.7314 42.0513 44.0345 42.3653L45.8689 44.1996L44.0345 46.0339C43.7222 46.3463 43.7222 46.8527 44.0345 47.1651Z" fill="#14B082"/>
<path fill-rule="evenodd" clip-rule="evenodd" d="M31.7201 37.7997C30.695 36.4436 30.1618 34.7791 30.2081 33.0798C30.2379 32.6487 29.92 32.2719 29.49 32.2286C29.0601 32.1854 28.6735 32.4914 28.6169 32.9198C28.5741 35.2425 29.3795 37.5011 30.8824 39.2725C29.87 41.613 29.5106 44.184 29.8425 46.7124L29.1673 46.0379C28.8533 45.7348 28.3544 45.7391 28.0458 46.0477C27.7372 46.3563 27.7329 46.8552 28.0361 47.1691L30.4361 49.5691C30.5863 49.7172 30.789 49.8 31 49.7995C31.0429 49.7996 31.0857 49.7962 31.128 49.7891C31.3821 49.7481 31.601 49.5873 31.716 49.3571L33.316 46.1572C33.5135 45.7617 33.353 45.2811 32.9576 45.0836C32.5622 44.8861 32.0816 45.0466 31.8841 45.442L31.4209 46.3699C31.1941 44.4037 31.4213 42.4116 32.0848 40.5469C34.3116 42.4721 36.9757 43.8231 39.8447 44.482L38.6447 45.0836C38.2493 45.2811 38.0888 45.7617 38.2864 46.1572C38.4839 46.5526 38.9645 46.7131 39.3599 46.5155L42.5599 44.9156C42.7894 44.8004 42.9498 44.5822 42.991 44.3287C43.0322 44.0752 42.9491 43.8174 42.7679 43.6356L40.3679 41.2356C40.054 40.9325 39.5551 40.9368 39.2465 41.2454C38.9379 41.554 38.9336 42.0529 39.2367 42.3668L39.6423 42.7724C37.0832 42.1336 34.7269 40.8587 32.792 39.0661C32.9851 38.7389 33.1989 38.4245 33.4321 38.1245C36.552 34.147 42.1831 33.8046 42.2399 33.8046C42.6817 33.7825 43.022 33.4065 42.9999 32.9646C42.9777 32.5228 42.6017 32.1825 42.1599 32.2046C41.8999 32.2183 35.76 32.5782 32.1832 37.1277C32.0129 37.3406 31.8689 37.5749 31.7201 37.7997Z" fill="#14B082"/>
<path d="M25.4005 60.9992H45.072C46.6354 66.2517 51.7718 69.5999 57.2085 68.9104C62.6452 68.2209 66.7832 63.6965 66.986 58.22C66.9996 58.0784 66.9996 57.9416 66.9996 57.7992C67.0165 51.9191 62.4664 47.0355 56.5998 46.6371V28.1998C56.5997 27.9876 56.5154 27.7843 56.3654 27.6342L49.9655 21.2344C49.8155 21.0843 49.612 21 49.3998 21H25.4005C24.0749 21 23.0005 22.0745 23.0005 23.4V58.5992C23.0005 59.9246 24.0749 60.9992 25.4005 60.9992ZM55.7997 48.1994C56.3684 48.1991 56.9359 48.2492 57.4957 48.349L55.7997 49.5418L54.1038 48.349C54.6637 48.2496 55.2312 48.1995 55.7997 48.1994ZM57.6661 60.1992H53.9334L52.7886 56.7336L55.7997 54.6169L58.8109 56.7336L57.6661 60.1992ZM51.1247 62.5991H47.4904C46.7719 61.3552 46.3434 59.9652 46.2368 58.5327L49.0367 56.4287L51.2127 57.0688L52.4614 60.8479L51.1247 62.5991ZM52.1566 48.937L54.9998 50.9353V53.224L51.6998 55.544L49.5167 54.904L48.4967 51.6048C49.4833 50.4331 50.7391 49.5177 52.1566 48.937ZM47.3367 53.2681L47.9487 55.2465L46.2952 56.4872C46.4456 55.3602 46.7984 54.2696 47.3367 53.2681ZM48.6551 64.199H50.9399L51.6831 66.4702C50.532 65.9232 49.5024 65.1509 48.6551 64.199ZM53.5838 67.1342L52.4118 63.5503L53.7502 61.7991H57.8494L59.1877 63.5503L58.0157 67.135C56.5583 67.4779 55.0411 67.4776 53.5838 67.1342ZM59.9165 66.4702L60.6589 64.199H62.9452C62.0975 65.1508 61.0676 65.9231 59.9165 66.4702ZM64.11 62.5991H60.4749L59.1365 60.8479L60.3853 57.0688L62.5613 56.4287L65.3612 58.5327C65.256 59.9652 64.8282 61.3553 64.11 62.5991ZM64.2627 53.2673C64.8004 54.2692 65.1527 55.3601 65.3027 56.4872L63.6492 55.2465L64.2627 53.2673ZM63.1028 51.6033L62.0837 54.9008L59.8997 55.5408L56.5997 53.224V50.9353L59.4428 48.9354C60.8605 49.5159 62.1163 50.4313 63.1028 51.6033ZM50.1999 23.7312L53.8686 27.3998H50.9999C50.5581 27.3998 50.1999 27.0416 50.1999 26.5998V23.7312ZM24.6005 23.4C24.6005 22.9582 24.9587 22.6 25.4005 22.6H48.5999V26.5999C48.5999 27.9254 49.6744 28.9999 50.9999 28.9999H54.9998V46.6371C49.1422 47.0543 44.6024 51.9268 44.6 57.7993C44.6 57.9424 44.6 58.0801 44.6112 58.1777C44.626 58.5866 44.6634 58.9945 44.7232 59.3993H25.4005C24.9587 59.3993 24.6005 59.0411 24.6005 58.5993V23.4Z" fill="#14B082"/>
</g>
<defs>
<clipPath id="clip0_2_1868">
<rect width="48" height="48" fill="white" transform="translate(21 21)"/>
</clipPath>
</defs>
</svg>
