<svg width="11" height="38" viewBox="0 0 11 38" fill="none" xmlns="http://www.w3.org/2000/svg">
<path d="M10.3373 12.9844L0.887325 14.1687L0.549825 15.7375L2.4092 16.075C3.61857 16.3656 3.8592 16.8 3.5967 18.0094L0.549825 32.3125C-0.24705 36.0094 0.987325 37.75 3.8842 37.75C6.1342 37.75 8.74045 36.7125 9.92483 35.2844L10.2873 33.5687C9.46545 34.2937 8.25607 34.5844 7.4592 34.5844C6.32482 34.5844 5.91545 33.7875 6.20295 32.3844L10.3373 12.9844ZM10.6217 4.375C10.6217 5.46902 10.1871 6.51823 9.41352 7.29181C8.63993 8.0654 7.59072 8.5 6.4967 8.5C5.40268 8.5 4.35347 8.0654 3.57988 7.29181C2.8063 6.51823 2.3717 5.46902 2.3717 4.375C2.3717 3.28098 2.8063 2.23177 3.57988 1.45818C4.35347 0.684597 5.40268 0.25 6.4967 0.25C7.59072 0.25 8.63993 0.684597 9.41352 1.45818C10.1871 2.23177 10.6217 3.28098 10.6217 4.375Z" fill="#278AF3"/>
</svg>
