<svg width="23" height="22" viewBox="0 0 23 22" fill="none" xmlns="http://www.w3.org/2000/svg">
<path fill-rule="evenodd" clip-rule="evenodd" d="M20.0682 1.76001H3.59055C3.02817 1.76001 2.57227 2.21507 2.57227 2.77641V19.2236C2.57227 19.4932 2.67955 19.7517 2.87051 19.9423C3.06148 20.1329 3.32048 20.24 3.59055 20.24H12.4589V13.079H10.052V10.307H12.4589V8.22801C12.3579 7.23999 12.6996 6.25796 13.3924 5.54509C14.0852 4.83223 15.0582 4.46141 16.0506 4.53201C16.7711 4.52758 17.4913 4.56461 18.2075 4.64289V7.13769H16.7356C15.5692 7.13769 15.3471 7.69209 15.3471 8.49597V10.2793H18.1242L17.7632 13.0513H15.3471V20.24H20.0682C20.3383 20.24 20.5973 20.1329 20.7882 19.9423C20.9792 19.7517 21.0865 19.4932 21.0865 19.2236V2.77641C21.0865 2.50684 20.9792 2.24832 20.7882 2.05771C20.5973 1.86709 20.3383 1.76001 20.0682 1.76001Z" fill="#0F5DAB"/>
</svg>
