<svg width="61" height="60" viewBox="0 0 61 60" fill="none" xmlns="http://www.w3.org/2000/svg">
<rect x="0.0634766" width="60.1899" height="60" rx="3" fill="#45C646"/>
<path fill-rule="evenodd" clip-rule="evenodd" d="M18.5592 29.375C18.5592 35.4156 23.4715 40.3125 29.5313 40.3125C35.591 40.3125 40.5034 35.4156 40.5034 29.375C40.5034 23.3344 35.591 18.4375 29.5313 18.4375C23.4715 18.4375 18.5592 23.3344 18.5592 29.375ZM29.5313 42.1875C22.4327 42.1875 16.6782 36.4511 16.6782 29.375C16.6782 22.2989 22.4327 16.5625 29.5313 16.5625C36.6298 16.5625 42.3843 22.2989 42.3843 29.375C42.3843 32.5756 41.207 35.5022 39.2606 37.7478L43.3628 41.8371C43.7301 42.2032 43.7301 42.7968 43.3628 43.1629C42.9955 43.529 42.4001 43.529 42.0328 43.1629L37.9305 39.0736C35.6778 41.0139 32.742 42.1875 29.5313 42.1875Z" fill="#EFEFEF"/>
</svg>
