<svg width="48" height="48" viewBox="0 0 48 48" fill="none" xmlns="http://www.w3.org/2000/svg">
<circle cx="24" cy="24" r="23.5" stroke="#3F3F46"/>
<path fill-rule="evenodd" clip-rule="evenodd" d="M25.0405 12.3867C18.8846 12.3867 13.9321 17.3392 13.9321 23.4951C13.9321 28.4013 17.1258 32.567 21.5229 34.0481C22.0783 34.1407 22.2634 33.8167 22.2634 33.4927C22.2634 33.215 22.2634 32.5207 22.2634 31.595C19.1623 32.2893 18.5143 30.1139 18.5143 30.1139C18.0052 28.8179 17.2646 28.4939 17.2646 28.4939C16.2464 27.7996 17.3572 27.7996 17.3572 27.7996C18.4681 27.8922 19.0698 28.9567 19.0698 28.9567C20.0417 30.6693 21.6617 30.1602 22.3097 29.8824C22.4023 29.1419 22.68 28.679 23.004 28.4013C20.5509 28.1236 17.9589 27.1516 17.9589 22.8934C17.9589 21.69 18.3755 20.6717 19.116 19.9312C19.0235 19.6535 18.6069 18.5426 19.2086 16.9689C19.2086 16.9689 20.1343 16.6912 22.2634 18.1261C23.1428 17.8946 24.1148 17.7558 25.0405 17.7558C25.9662 17.7558 26.9382 17.8946 27.8176 18.1261C29.9467 16.6912 30.8724 16.9689 30.8724 16.9689C31.4741 18.4963 31.1039 19.6072 30.965 19.9312C31.6593 20.718 32.1221 21.69 32.1221 22.8934C32.1221 27.1516 29.5302 28.0773 27.0308 28.355C27.4473 28.679 27.7713 29.3733 27.7713 30.3916C27.7713 31.8727 27.7713 33.0761 27.7713 33.4464C27.7713 33.7241 27.9565 34.0944 28.5582 34.0018C32.9553 32.567 36.1489 28.4013 36.1489 23.4951C36.1489 17.3392 31.1964 12.3867 25.0405 12.3867Z" fill="white"/>
</svg>
