<svg width="48" height="48" viewBox="0 0 48 48" fill="none" xmlns="http://www.w3.org/2000/svg">
<path d="M44.9504 35.8547C46.6467 34.455 46.8871 31.9452 45.4874 30.2489C44.727 29.3274 43.593 28.796 42.3983 28.8013C42.2871 28.8013 42.1824 28.8252 42.0734 28.8342C41.4407 27.3651 39.9981 26.4101 38.3987 26.4015C36.7458 26.3999 35.2648 27.4225 34.6809 28.9688C33.9769 28.7454 33.2212 28.7454 32.5172 28.9688C31.7396 26.9156 29.4448 25.8816 27.3915 26.6592C26.3312 27.0608 25.4928 27.8961 25.0872 28.9549C24.3786 28.7453 23.6238 28.7502 22.918 28.9688C22.1402 26.9155 19.8451 25.8814 17.7919 26.6593C16.7268 27.0628 15.8858 27.9037 15.4824 28.9688C14.7784 28.7454 14.0227 28.7454 13.3187 28.9688C12.7347 27.4225 11.2538 26.3999 9.60094 26.4015C8.00146 26.4101 6.55878 27.365 5.92623 28.8342C5.81734 28.8253 5.71255 28.8013 5.60125 28.8013C3.40213 28.7915 1.61137 30.5664 1.60157 32.7655C1.59627 33.9602 2.12763 35.0942 3.04916 35.8546C1.15151 36.9107 -0.0175007 38.9193 0.00169774 41.0909V47.1999C0.00139776 47.6414 0.359169 47.9995 0.800735 47.9998C0.801034 47.9998 0.801334 47.9998 0.801634 47.9998H47.198C47.6395 48.0001 47.9976 47.6423 47.9979 47.2008C47.9979 47.2005 47.9979 47.2002 47.9979 47.1999V41.0909C48.0171 38.9194 46.8482 36.9108 44.9504 35.8547ZM42.3983 30.4013C43.7231 30.4027 44.7968 31.4763 44.7982 32.8011C44.7982 34.1265 43.7237 35.2009 42.3983 35.2009C41.0729 35.2009 39.9985 34.1265 39.9985 32.8011C39.9985 31.4757 41.0729 30.4013 42.3983 30.4013ZM38.3987 28.0015C39.2894 28.0073 40.1042 28.504 40.5175 29.2932C39.2222 29.9806 38.4089 31.3237 38.3998 32.7901C38.1221 32.7915 37.8461 32.7456 37.5838 32.6542C37.5403 31.5043 37.0004 30.4297 36.1036 29.7084C36.4045 28.6927 37.3394 27.9974 38.3987 28.0015ZM33.599 30.4013C34.9238 30.4027 35.9974 31.4763 35.9988 32.8011C35.9988 34.1265 34.9244 35.2009 33.599 35.2009C32.2736 35.2009 31.1992 34.1265 31.1992 32.8011C31.1992 31.4757 32.2736 30.4013 33.599 30.4013ZM28.7994 28.0015C29.8586 27.9974 30.7936 28.6927 31.0943 29.7083C30.2027 30.4259 29.6639 31.493 29.616 32.6365C29.0898 32.8235 28.5153 32.8244 27.9887 32.6389C27.9416 31.4895 27.402 30.4159 26.5077 29.6922C26.8145 28.6845 27.746 27.9972 28.7994 28.0015ZM21.9383 31.568C22.3713 30.8425 23.1549 30.3991 23.9998 30.4013C24.4299 30.3997 24.8521 30.5168 25.22 30.7396C26.355 31.417 26.7259 32.8863 26.0484 34.0213C25.371 35.1563 23.9017 35.5272 22.7667 34.8497C21.6317 34.1723 21.2608 32.703 21.9383 31.568ZM19.2002 28.0015C20.2594 27.9974 21.1943 28.6927 21.4951 29.7083C20.6035 30.4259 20.0647 31.493 20.0167 32.6365C19.4885 32.8242 18.9118 32.8242 18.3835 32.6365C18.3355 31.4931 17.7968 30.4259 16.9052 29.7083C17.206 28.6927 18.141 27.9974 19.2002 28.0015ZM14.4006 30.4013C15.7254 30.4027 16.799 31.4763 16.8004 32.8011C16.8004 34.1265 15.726 35.2009 14.4006 35.2009C13.0752 35.2009 12.0007 34.1265 12.0007 32.8011C12.0007 31.4757 13.0752 30.4013 14.4006 30.4013ZM9.60094 28.0015C10.6602 27.9974 11.5951 28.6927 11.8959 29.7083C10.9991 30.4296 10.4592 31.5042 10.4157 32.6541C10.1534 32.7455 9.87752 32.7915 9.59974 32.79C9.59064 31.3236 8.7773 29.9806 7.48201 29.2931C7.89537 28.5041 8.71021 28.0074 9.60094 28.0015ZM5.60125 30.4013C6.92665 30.4013 8.00106 31.4757 8.00106 32.8011C8.00106 34.1265 6.92665 35.2009 5.60125 35.2009C4.27646 35.1995 3.20284 34.1259 3.20144 32.8011C3.20144 31.4757 4.27586 30.4013 5.60125 30.4013ZM8.801 41.091V46.4H1.60157V41.091C1.52698 38.8039 3.31454 36.8865 5.60125 36.8008C7.12403 36.8287 8.49673 37.7251 9.13447 39.1082C8.91479 39.7463 8.8021 40.4163 8.801 41.091ZM8.14885 35.8585C8.63421 35.4608 9.01938 34.9544 9.27306 34.3805C9.38225 34.3894 9.49115 34.401 9.60094 34.401C9.96671 34.4002 10.3306 34.3493 10.6825 34.2498C10.9299 34.8743 11.3309 35.4263 11.8484 35.8547C11.1221 36.2504 10.4908 36.7995 9.99791 37.4637C9.50614 36.8001 8.875 36.2521 8.14885 35.8585ZM18.4002 41.091V46.4H10.4009V41.091C10.3263 38.8039 12.1138 36.8865 14.4006 36.8008C16.6873 36.8865 18.4749 38.8039 18.4002 41.091ZM16.9527 35.8547C17.4701 35.4263 17.8711 34.8743 18.1187 34.2498C18.8256 34.4514 19.5748 34.4514 20.2818 34.2498C20.5293 34.8743 20.9302 35.4263 21.4477 35.8547C20.5065 36.3702 19.728 37.1385 19.2002 38.0728C18.6723 37.1385 17.8939 36.3702 16.9527 35.8547ZM27.9995 41.091V46.4H20.0001V41.091C19.9255 38.8039 21.7131 36.8865 23.9998 36.8008C26.2865 36.8865 28.0742 38.8039 27.9995 41.091ZM26.5519 35.8547C27.0694 35.4263 27.4703 34.8743 27.7179 34.2498C28.4248 34.4514 29.1741 34.4514 29.881 34.2498C30.1285 34.8743 30.5295 35.4263 31.0469 35.8547C30.1057 36.3702 29.3273 37.1385 28.7994 38.0728C28.2716 37.1385 27.4931 36.3702 26.5519 35.8547ZM37.5987 41.091V46.4H29.5994V41.091C29.4444 38.8821 31.1093 36.9657 33.3184 36.8107C35.5273 36.6556 37.4437 38.3207 37.5987 40.5297C37.6118 40.7166 37.6118 40.9042 37.5987 41.091ZM38.0017 37.4637C37.5088 36.7996 36.8774 36.2505 36.1511 35.8547C36.6686 35.4263 37.0696 34.8742 37.3171 34.2498C37.669 34.3493 38.033 34.4002 38.3987 34.401C38.5084 34.401 38.6174 34.3894 38.7265 34.3805C38.9802 34.9544 39.3653 35.4607 39.8507 35.8585C39.1246 36.2521 38.4935 36.8001 38.0017 37.4637ZM46.398 41.091V46.4H39.1986V41.091C39.1975 40.4162 39.0848 39.7463 38.8651 39.1081C39.5029 37.725 40.8756 36.8286 42.3983 36.8007C44.6851 36.8865 46.4727 38.8039 46.398 41.091Z" fill="#FABB18"/>
<path d="M33.5024 1.88153C33.4744 1.85293 33.4461 1.82463 33.4175 1.79663C30.9805 -0.598878 27.0732 -0.598878 24.6362 1.79663L24.0003 2.42548L23.3645 1.79663C20.9275 -0.598878 17.0202 -0.598878 14.5832 1.79663C12.2409 4.09205 12.2029 7.85165 14.4983 10.1939C14.5271 10.2233 14.5562 10.2523 14.5856 10.2811L23.4404 18.9734C23.7514 19.2785 24.2495 19.2785 24.5606 18.9734L33.4177 10.2788C35.7597 7.98334 35.7978 4.22384 33.5024 1.88153ZM32.3644 9.06936C32.3415 9.09286 32.3183 9.11605 32.2948 9.13895L24.0002 17.2813L15.7079 9.14135C13.9938 7.46698 13.9616 4.72 15.636 3.00594C15.6597 2.98174 15.6836 2.95774 15.7079 2.93404C17.5207 1.15298 20.4265 1.15298 22.2394 2.93404L23.4377 4.11985C23.7494 4.42762 24.2508 4.42762 24.5626 4.11985L25.7609 2.93404C27.5737 1.15298 30.4795 1.15298 32.2924 2.93404C34.0065 4.60841 34.0387 7.35529 32.3644 9.06936Z" fill="#FABB18"/>
<path d="M11.8185 13.3514C11.7447 13.271 11.6675 13.1937 11.5869 13.1199C10.1566 11.8155 8.02679 11.639 6.40142 12.6902C4.77575 11.6398 2.64651 11.8162 1.21593 13.1199C-0.307451 14.5154 -0.411143 16.8817 0.984347 18.405C1.05814 18.4855 1.13533 18.5628 1.21593 18.6366L5.85466 22.9855C6.00265 23.1248 6.19823 23.2023 6.40152 23.2019C6.6047 23.2023 6.80039 23.1248 6.94837 22.9855L11.5871 18.6366C13.1104 17.2411 13.2141 14.8748 11.8185 13.3514ZM10.6496 17.3132C10.6002 17.368 10.548 17.4201 10.4933 17.4695L6.40142 21.3051L2.30954 17.4695C1.86188 17.0609 1.6053 16.4836 1.6018 15.8774C1.6055 15.2718 1.86208 14.6951 2.30954 14.287C3.31386 13.3714 4.85024 13.3714 5.85456 14.287C6.16184 14.576 6.641 14.576 6.94817 14.287C7.95249 13.3714 9.48887 13.3714 10.4932 14.287C11.3721 15.0795 11.4421 16.4344 10.6496 17.3132Z" fill="#FABB18"/>
<path d="M47.0158 13.3515C46.942 13.271 46.8648 13.1937 46.7842 13.1199C45.3539 11.8154 43.2241 11.639 41.5987 12.6903C39.973 11.6399 37.8438 11.8162 36.4132 13.1199C34.8898 14.5154 34.7861 16.8817 36.1816 18.4051C36.2554 18.4856 36.3326 18.5629 36.4132 18.6367L41.0519 22.9856C41.3594 23.274 41.8382 23.274 42.1455 22.9856L46.7843 18.6367C48.3077 17.2412 48.4113 14.8749 47.0158 13.3515ZM45.8468 17.3133C45.7975 17.3681 45.7453 17.4202 45.6906 17.4696L41.5987 21.3052L37.5068 17.4696C36.628 16.6771 36.558 15.3222 37.3505 14.4433C37.3999 14.3885 37.452 14.3364 37.5068 14.287C38.5111 13.3715 40.0475 13.3715 41.0518 14.287C41.3591 14.5761 41.8383 14.5761 42.1454 14.287C43.1498 13.3715 44.6861 13.3715 45.6905 14.287C46.5694 15.0796 46.6394 16.4345 45.8468 17.3133Z" fill="#FABB18"/>
</svg>
