<svg width="90" height="90" viewBox="0 0 90 90" fill="none" xmlns="http://www.w3.org/2000/svg">
<circle opacity="0.2" cx="45" cy="45" r="45" fill="#FABB18" fill-opacity="0.12"/>
<g clip-path="url(#clip0_2_1907)">
<path d="M65.9504 56.8547C67.6467 55.455 67.8871 52.9452 66.4874 51.2489C65.727 50.3274 64.593 49.796 63.3983 49.8013C63.2871 49.8013 63.1824 49.8252 63.0734 49.8342C62.4407 48.3651 60.9981 47.4101 59.3987 47.4015C57.7458 47.3999 56.2648 48.4225 55.6809 49.9688C54.9769 49.7454 54.2212 49.7454 53.5172 49.9688C52.7396 47.9156 50.4448 46.8816 48.3915 47.6592C47.3312 48.0608 46.4928 48.8961 46.0872 49.9549C45.3786 49.7453 44.6238 49.7502 43.918 49.9688C43.1402 47.9155 40.8451 46.8814 38.7919 47.6593C37.7268 48.0628 36.8858 48.9037 36.4824 49.9688C35.7784 49.7454 35.0227 49.7454 34.3187 49.9688C33.7347 48.4225 32.2538 47.3999 30.6009 47.4015C29.0015 47.4101 27.5588 48.365 26.9262 49.8342C26.8173 49.8253 26.7125 49.8013 26.6013 49.8013C24.4021 49.7915 22.6114 51.5664 22.6016 53.7655C22.5963 54.9602 23.1276 56.0942 24.0492 56.8546C22.1515 57.9107 20.9825 59.9193 21.0017 62.0909V68.1999C21.0014 68.6414 21.3592 68.9995 21.8007 68.9998C21.801 68.9998 21.8013 68.9998 21.8016 68.9998H68.198C68.6395 69.0001 68.9976 68.6423 68.9979 68.2008C68.9979 68.2005 68.9979 68.2002 68.9979 68.1999V62.0909C69.0171 59.9194 67.8482 57.9108 65.9504 56.8547ZM63.3983 51.4013C64.7231 51.4027 65.7968 52.4763 65.7982 53.8011C65.7982 55.1265 64.7237 56.2009 63.3983 56.2009C62.0729 56.2009 60.9985 55.1265 60.9985 53.8011C60.9985 52.4757 62.0729 51.4013 63.3983 51.4013ZM59.3987 49.0015C60.2894 49.0073 61.1042 49.504 61.5175 50.2932C60.2222 50.9806 59.4089 52.3237 59.3998 53.7901C59.1221 53.7915 58.8461 53.7456 58.5838 53.6542C58.5403 52.5043 58.0004 51.4297 57.1036 50.7084C57.4045 49.6927 58.3394 48.9974 59.3987 49.0015ZM54.599 51.4013C55.9238 51.4027 56.9974 52.4763 56.9988 53.8011C56.9988 55.1265 55.9244 56.2009 54.599 56.2009C53.2736 56.2009 52.1992 55.1265 52.1992 53.8011C52.1992 52.4757 53.2736 51.4013 54.599 51.4013ZM49.7994 49.0015C50.8586 48.9974 51.7936 49.6927 52.0943 50.7083C51.2027 51.4259 50.6639 52.493 50.616 53.6365C50.0898 53.8235 49.5153 53.8244 48.9887 53.6389C48.9416 52.4895 48.402 51.4159 47.5077 50.6922C47.8145 49.6845 48.746 48.9972 49.7994 49.0015ZM42.9383 52.568C43.3713 51.8425 44.1549 51.3991 44.9998 51.4013C45.4299 51.3997 45.8521 51.5168 46.22 51.7396C47.355 52.417 47.7259 53.8863 47.0484 55.0213C46.371 56.1563 44.9017 56.5272 43.7667 55.8497C42.6317 55.1723 42.2608 53.703 42.9383 52.568ZM40.2002 49.0015C41.2594 48.9974 42.1943 49.6927 42.4951 50.7083C41.6035 51.4259 41.0647 52.493 41.0167 53.6365C40.4885 53.8242 39.9118 53.8242 39.3835 53.6365C39.3355 52.4931 38.7968 51.4259 37.9052 50.7083C38.206 49.6927 39.141 48.9974 40.2002 49.0015ZM35.4006 51.4013C36.7254 51.4027 37.799 52.4763 37.8004 53.8011C37.8004 55.1265 36.726 56.2009 35.4006 56.2009C34.0752 56.2009 33.0007 55.1265 33.0007 53.8011C33.0007 52.4757 34.0752 51.4013 35.4006 51.4013ZM30.6009 49.0015C31.6602 48.9974 32.5951 49.6927 32.8959 50.7083C31.9991 51.4296 31.4592 52.5042 31.4157 53.6541C31.1534 53.7455 30.8775 53.7915 30.5997 53.79C30.5906 52.3236 29.7773 50.9806 28.482 50.2931C28.8954 49.5041 29.7102 49.0074 30.6009 49.0015ZM26.6013 51.4013C27.9266 51.4013 29.0011 52.4757 29.0011 53.8011C29.0011 55.1265 27.9266 56.2009 26.6013 56.2009C25.2765 56.1995 24.2028 55.1259 24.2014 53.8011C24.2014 52.4757 25.2759 51.4013 26.6013 51.4013ZM29.801 62.091V67.4H22.6016V62.091C22.527 59.8039 24.3145 57.8865 26.6013 57.8008C28.124 57.8287 29.4967 58.7251 30.1345 60.1082C29.9148 60.7463 29.8021 61.4163 29.801 62.091ZM29.1489 56.8585C29.6342 56.4608 30.0194 55.9544 30.2731 55.3805C30.3823 55.3894 30.4911 55.401 30.6009 55.401C30.9667 55.4002 31.3306 55.3493 31.6825 55.2498C31.9299 55.8743 32.3309 56.4263 32.8484 56.8547C32.1221 57.2504 31.4908 57.7995 30.9979 58.4637C30.5061 57.8001 29.875 57.2521 29.1489 56.8585ZM39.4002 62.091V67.4H31.4009V62.091C31.3263 59.8039 33.1138 57.8865 35.4006 57.8008C37.6873 57.8865 39.4749 59.8039 39.4002 62.091ZM37.9527 56.8547C38.4701 56.4263 38.8711 55.8743 39.1187 55.2498C39.8256 55.4514 40.5748 55.4514 41.2818 55.2498C41.5293 55.8743 41.9302 56.4263 42.4477 56.8547C41.5065 57.3702 40.728 58.1385 40.2002 59.0728C39.6723 58.1385 38.8939 57.3702 37.9527 56.8547ZM48.9995 62.091V67.4H41.0001V62.091C40.9255 59.8039 42.7131 57.8865 44.9998 57.8008C47.2865 57.8865 49.0742 59.8039 48.9995 62.091ZM47.5519 56.8547C48.0694 56.4263 48.4703 55.8743 48.7179 55.2498C49.4248 55.4514 50.1741 55.4514 50.881 55.2498C51.1285 55.8743 51.5295 56.4263 52.0469 56.8547C51.1057 57.3702 50.3273 58.1385 49.7994 59.0728C49.2716 58.1385 48.4931 57.3702 47.5519 56.8547ZM58.5987 62.091V67.4H50.5994V62.091C50.4444 59.8821 52.1093 57.9657 54.3184 57.8107C56.5273 57.6556 58.4437 59.3207 58.5987 61.5297C58.6118 61.7166 58.6118 61.9042 58.5987 62.091ZM59.0017 58.4637C58.5088 57.7996 57.8774 57.2505 57.1511 56.8547C57.6686 56.4263 58.0696 55.8742 58.3171 55.2498C58.669 55.3493 59.033 55.4002 59.3987 55.401C59.5085 55.401 59.6174 55.3894 59.7265 55.3805C59.9802 55.9544 60.3653 56.4607 60.8507 56.8585C60.1246 57.2521 59.4935 57.8001 59.0017 58.4637ZM67.398 62.091V67.4H60.1986V62.091C60.1975 61.4162 60.0848 60.7463 59.8651 60.1081C60.5029 58.725 61.8756 57.8286 63.3983 57.8007C65.6851 57.8865 67.4727 59.8039 67.398 62.091Z" fill="#FABB18"/>
<path d="M54.5024 22.8815C54.4744 22.8529 54.4461 22.8246 54.4175 22.7966C51.9805 20.4011 48.0732 20.4011 45.6362 22.7966L45.0003 23.4255L44.3645 22.7966C41.9275 20.4011 38.0202 20.4011 35.5832 22.7966C33.2409 25.0921 33.2029 28.8517 35.4983 31.1939C35.5271 31.2233 35.5562 31.2523 35.5856 31.2811L44.4404 39.9734C44.7514 40.2785 45.2495 40.2785 45.5606 39.9734L54.4177 31.2788C56.7597 28.9833 56.7978 25.2238 54.5024 22.8815ZM53.3644 30.0694C53.3415 30.0929 53.3183 30.1161 53.2948 30.139L45.0002 38.2813L36.7079 30.1414C34.9938 28.467 34.9616 25.72 36.636 24.0059C36.6597 23.9817 36.6836 23.9577 36.7079 23.934C38.5207 22.153 41.4265 22.153 43.2394 23.934L44.4377 25.1198C44.7494 25.4276 45.2508 25.4276 45.5626 25.1198L46.7609 23.934C48.5737 22.153 51.4795 22.153 53.2924 23.934C55.0065 25.6084 55.0387 28.3553 53.3644 30.0694Z" fill="#FABB18"/>
<path d="M32.8185 34.3514C32.7447 34.271 32.6675 34.1937 32.5869 34.1199C31.1566 32.8155 29.0268 32.639 27.4014 33.6902C25.7757 32.6398 23.6465 32.8162 22.2159 34.1199C20.6925 35.5154 20.5889 37.8817 21.9843 39.405C22.0581 39.4855 22.1353 39.5628 22.2159 39.6366L26.8547 43.9855C27.0026 44.1248 27.1982 44.2023 27.4015 44.2019C27.6047 44.2023 27.8004 44.1248 27.9484 43.9855L32.5871 39.6366C34.1104 38.2411 34.2141 35.8748 32.8185 34.3514ZM31.6496 38.3132C31.6002 38.368 31.548 38.4201 31.4933 38.4695L27.4014 42.3051L23.3095 38.4695C22.8619 38.0609 22.6053 37.4836 22.6018 36.8774C22.6055 36.2718 22.8621 35.6951 23.3095 35.287C24.3139 34.3714 25.8502 34.3714 26.8546 35.287C27.1618 35.576 27.641 35.576 27.9482 35.287C28.9525 34.3714 30.4889 34.3714 31.4932 35.287C32.3721 36.0795 32.4421 37.4344 31.6496 38.3132Z" fill="#FABB18"/>
<path d="M68.0158 34.3515C67.942 34.271 67.8648 34.1937 67.7842 34.1199C66.3539 32.8154 64.2241 32.639 62.5987 33.6903C60.973 32.6399 58.8438 32.8162 57.4132 34.1199C55.8898 35.5154 55.7861 37.8817 57.1816 39.4051C57.2554 39.4856 57.3326 39.5629 57.4132 39.6367L62.0519 43.9856C62.3594 44.274 62.8382 44.274 63.1455 43.9856L67.7843 39.6367C69.3077 38.2412 69.4113 35.8749 68.0158 34.3515ZM66.8468 38.3133C66.7974 38.3681 66.7453 38.4202 66.6906 38.4696L62.5987 42.3052L58.5068 38.4696C57.628 37.6771 57.558 36.3222 58.3505 35.4433C58.3999 35.3885 58.452 35.3364 58.5068 35.287C59.5111 34.3715 61.0475 34.3715 62.0518 35.287C62.3591 35.5761 62.8383 35.5761 63.1454 35.287C64.1498 34.3715 65.6861 34.3715 66.6905 35.287C67.5694 36.0796 67.6394 37.4345 66.8468 38.3133Z" fill="#FABB18"/>
</g>
<defs>
<clipPath id="clip0_2_1907">
<rect width="48" height="48" fill="white" transform="translate(21 21)"/>
</clipPath>
</defs>
</svg>
