<svg width="48" height="48" viewBox="0 0 48 48" fill="none" xmlns="http://www.w3.org/2000/svg">
<circle cx="24" cy="24" r="23.5" stroke="#3F3F46"/>
<path d="M24.0011 14.4793C27.1017 14.4793 27.4689 14.4909 28.6938 14.5467C29.4303 14.5557 30.1597 14.691 30.8505 14.9465C31.3514 15.1397 31.8063 15.4357 32.186 15.8153C32.5656 16.1949 32.8615 16.6498 33.0547 17.1508C33.3103 17.8415 33.4455 18.571 33.4545 19.3075C33.5098 20.5323 33.522 20.8995 33.522 24.0002C33.522 27.1008 33.5104 27.468 33.4545 28.6929C33.4455 29.4294 33.3103 30.1588 33.0547 30.8496C32.8615 31.3505 32.5656 31.8054 32.186 32.1851C31.8063 32.5647 31.3514 32.8606 30.8505 33.0538C30.1597 33.3094 29.4303 33.4446 28.6938 33.4536C27.4695 33.5089 27.1023 33.5211 24.0011 33.5211C20.8999 33.5211 20.5327 33.5095 19.3084 33.4536C18.5719 33.4446 17.8424 33.3094 17.1517 33.0538C16.6508 32.8606 16.1958 32.5647 15.8162 32.1851C15.4366 31.8054 15.1406 31.3505 14.9474 30.8496C14.6919 30.1588 14.5566 29.4294 14.5476 28.6929C14.4923 27.468 14.4802 27.1008 14.4802 24.0002C14.4802 20.8995 14.4918 20.5323 14.5476 19.3075C14.5566 18.571 14.6919 17.8415 14.9474 17.1508C15.1406 16.6498 15.4366 16.1949 15.8162 15.8153C16.1958 15.4357 16.6508 15.1397 17.1517 14.9465C17.8424 14.691 18.5719 14.5557 19.3084 14.5467C20.5333 14.4914 20.9004 14.4793 24.0011 14.4793ZM24.0011 12.3867C20.849 12.3867 20.452 12.4 19.2133 12.4564C18.2494 12.4756 17.2958 12.6581 16.393 12.9961C15.6185 13.2879 14.917 13.7452 14.3375 14.336C13.7461 14.9158 13.2885 15.6176 12.9965 16.3926C12.6584 17.2954 12.4759 18.249 12.4568 19.2129C12.4015 20.4505 12.3882 20.8475 12.3882 23.9996C12.3882 27.1517 12.4015 27.5487 12.4579 28.7875C12.477 29.7513 12.6595 30.7049 12.9976 31.6077C13.2892 32.3826 13.7465 33.0845 14.3375 33.6643C14.9173 34.2553 15.6192 34.7126 16.3941 35.0042C17.2969 35.3423 18.2505 35.5248 19.2144 35.544C20.4531 35.5993 20.8485 35.6136 24.0022 35.6136C27.1559 35.6136 27.5513 35.6004 28.79 35.544C29.7539 35.5248 30.7075 35.3423 31.6103 35.0042C32.3815 34.7053 33.0818 34.2487 33.6665 33.6637C34.2511 33.0786 34.7073 32.378 35.0057 31.6066C35.3438 30.7038 35.5262 29.7502 35.5454 28.7863C35.6007 27.5487 35.614 27.1517 35.614 23.9996C35.614 20.8475 35.6007 20.4505 35.5443 19.2118C35.5251 18.2479 35.3426 17.2943 35.0046 16.3915C34.7129 15.6166 34.2557 14.9148 33.6647 14.3349C33.0848 13.7439 32.383 13.2867 31.6081 12.995C30.7053 12.657 29.7517 12.4745 28.7878 12.4553C27.5502 12.4 27.1532 12.3867 24.0011 12.3867Z" fill="white"/>
<path d="M24.0035 18.0368C22.8241 18.0368 21.6711 18.3866 20.6904 19.0419C19.7097 19.6971 18.9453 20.6285 18.494 21.7182C18.0426 22.8079 17.9245 24.007 18.1546 25.1638C18.3847 26.3206 18.9527 27.3832 19.7867 28.2172C20.6207 29.0512 21.6833 29.6191 22.8401 29.8493C23.9969 30.0794 25.196 29.9613 26.2857 29.5099C27.3754 29.0585 28.3067 28.2942 28.962 27.3135C29.6173 26.3328 29.967 25.1798 29.967 24.0003C29.967 22.4187 29.3387 20.9019 28.2204 19.7835C27.102 18.6651 25.5852 18.0368 24.0035 18.0368ZM24.0035 27.8713C23.2379 27.8713 22.4895 27.6443 21.8529 27.2189C21.2164 26.7936 20.7202 26.189 20.4272 25.4817C20.1343 24.7744 20.0576 23.996 20.207 23.2451C20.3563 22.4943 20.725 21.8045 21.2664 21.2631C21.8077 20.7218 22.4975 20.3531 23.2484 20.2037C23.9992 20.0544 24.7776 20.131 25.4849 20.424C26.1922 20.717 26.7968 21.2132 27.2221 21.8497C27.6475 22.4863 27.8745 23.2347 27.8745 24.0003C27.8745 25.027 27.4667 26.0116 26.7407 26.7375C26.0148 27.4635 25.0302 27.8713 24.0035 27.8713Z" fill="white"/>
<path d="M30.2012 19.1933C30.9708 19.1933 31.5947 18.5694 31.5947 17.7998C31.5947 17.0302 30.9708 16.4062 30.2012 16.4062C29.4315 16.4062 28.8076 17.0302 28.8076 17.7998C28.8076 18.5694 29.4315 19.1933 30.2012 19.1933Z" fill="white"/>
</svg>
