<svg width="48" height="48" viewBox="0 0 48 48" fill="none" xmlns="http://www.w3.org/2000/svg">
<circle cx="24" cy="24" r="23.5" stroke="#3F3F46"/>
<path d="M34.6407 18.8282C33.9223 19.1474 33.1641 19.347 32.366 19.4667C33.1641 18.9878 33.8026 18.2296 34.082 17.3117C33.3237 17.7507 32.4857 18.07 31.5678 18.2695C30.8495 17.5113 29.8119 17.0324 28.6945 17.0324C26.5396 17.0324 24.7837 18.7883 24.7837 20.9433C24.7837 21.2625 24.8236 21.5419 24.9034 21.8212C21.6709 21.6616 18.7577 20.1052 16.8023 17.7108C16.483 18.3094 16.2835 18.9479 16.2835 19.6662C16.2835 21.0231 16.9619 22.2203 18.0394 22.9386C17.4009 22.8987 16.8023 22.7391 16.2436 22.4597V22.4996C16.2436 24.4152 17.6004 26.0114 19.3962 26.3706C19.077 26.4504 18.7178 26.4903 18.3586 26.4903C18.1192 26.4903 17.8399 26.4504 17.6004 26.4105C18.1192 27.9669 19.5559 29.1242 21.2718 29.1242C19.915 30.1617 18.2389 30.8003 16.4032 30.8003C16.084 30.8003 15.7647 30.8003 15.4854 30.7603C17.2413 31.8777 19.2765 32.5163 21.5113 32.5163C28.7344 32.5163 32.6852 26.5302 32.6852 21.3423C32.6852 21.1827 32.6852 20.9832 32.6852 20.8235C33.4434 20.3047 34.1219 19.6263 34.6407 18.8282Z" fill="white"/>
</svg>
