<svg width="20" height="20" viewBox="0 0 20 20" fill="none" xmlns="http://www.w3.org/2000/svg">
<path fill-rule="evenodd" clip-rule="evenodd" d="M13.8089 5.7079C13.1404 5.08167 11.968 4.33231 10.23 4.33231C7.78235 4.33231 5.70494 5.94398 4.95411 8.17155C4.769 8.7464 4.65591 9.3623 4.65591 9.99878C4.65591 10.6352 4.769 11.2512 4.9644 11.826C5.70494 14.0536 7.78235 15.6652 10.23 15.6652C11.6081 15.6652 12.6571 15.2854 13.4387 14.7413C14.6728 13.8791 15.2282 12.5959 15.331 11.7439H10.23V8.31528H18.9203C19.0539 8.89013 19.1157 9.44446 19.1157 10.2041C19.1157 13.0168 18.1077 15.3881 16.3594 16.9997C14.827 18.4163 12.7291 19.2376 10.23 19.2376C6.60989 19.2376 3.48345 17.1639 1.96139 14.1459C1.33408 12.8936 0.974121 11.4872 0.974121 9.99878C0.974121 8.51032 1.33408 7.10394 1.96139 5.85156C3.48345 2.83359 6.60989 0.76001 10.23 0.76001C12.7291 0.76001 14.8168 1.67363 16.4211 3.16209L13.8089 5.7079Z" fill="#EB5757"/>
</svg>
