<svg width="48" height="48" viewBox="0 0 48 48" fill="none" xmlns="http://www.w3.org/2000/svg">
<rect width="48" height="48" rx="24" fill="#343538"/>
<path d="M31.3082 30.275C31.3082 30.575 31.2415 30.8833 31.0998 31.1833C30.9582 31.4833 30.7748 31.7667 30.5332 32.0333C30.1248 32.4833 29.6748 32.8083 29.1665 33.0167C28.6665 33.225 28.1248 33.3333 27.5415 33.3333C26.6915 33.3333 25.7832 33.1333 24.8248 32.725C23.8665 32.3167 22.9082 31.7667 21.9582 31.075C20.9998 30.375 20.0915 29.6 19.2248 28.7417C18.3665 27.875 17.5915 26.9667 16.8998 26.0167C16.2165 25.0667 15.6665 24.1167 15.2665 23.175C14.8665 22.225 14.6665 21.3167 14.6665 20.45C14.6665 19.8833 14.7665 19.3417 14.9665 18.8417C15.1665 18.3333 15.4832 17.8667 15.9248 17.45C16.4582 16.925 17.0415 16.6667 17.6582 16.6667C17.8915 16.6667 18.1248 16.7167 18.3332 16.8167C18.5498 16.9167 18.7415 17.0667 18.8915 17.2833L20.8248 20.0083C20.9748 20.2167 21.0832 20.4083 21.1582 20.5917C21.2332 20.7667 21.2748 20.9417 21.2748 21.1C21.2748 21.3 21.2165 21.5 21.0998 21.6917C20.9915 21.8833 20.8332 22.0833 20.6332 22.2833L19.9998 22.9417C19.9082 23.0333 19.8665 23.1417 19.8665 23.275C19.8665 23.3417 19.8748 23.4 19.8915 23.4667C19.9165 23.5333 19.9415 23.5833 19.9582 23.6333C20.1082 23.9083 20.3665 24.2667 20.7332 24.7C21.1082 25.1333 21.5082 25.575 21.9415 26.0167C22.3915 26.4583 22.8248 26.8667 23.2665 27.2417C23.6998 27.6083 24.0582 27.8583 24.3415 28.0083C24.3832 28.025 24.4332 28.05 24.4915 28.075C24.5582 28.1 24.6248 28.1083 24.6998 28.1083C24.8415 28.1083 24.9498 28.0583 25.0415 27.9667L25.6748 27.3417C25.8832 27.1333 26.0832 26.975 26.2748 26.875C26.4665 26.7583 26.6582 26.7 26.8665 26.7C27.0248 26.7 27.1915 26.7333 27.3748 26.8083C27.5582 26.8833 27.7498 26.9917 27.9582 27.1333L30.7165 29.0917C30.9332 29.2417 31.0832 29.4167 31.1748 29.625C31.2582 29.8333 31.3082 30.0417 31.3082 30.275Z" stroke="white" stroke-width="1.2" stroke-miterlimit="10"/>
<path d="M28.4167 22.5001C28.4167 22.0001 28.025 21.2334 27.4417 20.6084C26.9083 20.0334 26.2 19.5834 25.5 19.5834" stroke="white" stroke-width="1.2" stroke-linecap="round" stroke-linejoin="round"/>
<path d="M31.3333 22.5C31.3333 19.275 28.725 16.6667 25.5 16.6667" stroke="white" stroke-width="1.2" stroke-linecap="round" stroke-linejoin="round"/>
</svg>
