<svg width="90" height="90" viewBox="0 0 90 90" fill="none" xmlns="http://www.w3.org/2000/svg">
<circle opacity="0.2" cx="45" cy="45" r="45" fill="#F23936" fill-opacity="0.12"/>
<g clip-path="url(#clip0_2_1855)">
<path d="M68.997 46.9276C68.9416 44.2903 68.0843 41.7832 66.518 39.6774C65.7233 38.6082 64.7628 37.6734 63.663 36.899C62.5628 36.1243 61.3589 35.535 60.0845 35.1472C57.5732 34.3826 54.9238 34.4208 52.4232 35.2576C49.868 36.1123 47.6951 37.7319 46.1394 39.9413C45.9556 40.2024 45.7807 40.4716 45.6196 40.7413C44.4059 42.7721 43.7935 45.0967 43.8486 47.4633C43.9131 50.2782 44.9305 53.0187 46.713 55.1796C47.4257 56.0443 48.2563 56.8132 49.1817 57.4649C50.1072 58.1166 51.111 58.6392 52.1646 59.0185C53.5294 59.5104 54.971 59.7569 56.4151 59.7569C57.7599 59.7569 59.1069 59.5431 60.3955 59.1149C62.6415 58.3692 64.6234 57.0095 66.1272 55.1822C66.3274 54.9388 66.5219 54.6832 66.7054 54.4226L66.7053 54.4227C68.2609 52.2129 69.0536 49.6214 68.997 46.9276ZM62.8321 38.0786C63.4046 38.4818 63.933 38.9351 64.4153 39.4312C63.5733 39.4087 62.74 39.3094 62.0808 39.1458C61.7043 38.58 61.3299 37.8289 61.0248 37.0438C61.6546 37.3307 62.2594 37.6754 62.8321 38.0786ZM53.2966 36.4959C54.3246 36.1949 55.3772 36.0439 56.4294 36.0439C57.3889 36.0439 58.3483 36.1696 59.2882 36.4206C59.6389 37.6107 60.1829 38.8428 60.7628 39.7641L59.1924 41.9944C57.5104 41.6201 55.0947 41.5764 53.4514 42.0641L52.022 40.3683C52.5891 39.2801 53.0676 37.8279 53.2966 36.4959ZM60.8076 48.5112C59.9561 49.5956 57.9515 51.1784 56.4813 51.7599C54.7478 51.1988 53.2033 50.111 52.091 48.6681C52.1311 47.0856 52.8272 44.8346 53.6898 43.5019C55.0706 43.0254 57.5527 43.0734 59.0541 43.4438C59.9086 44.7316 60.7898 47.0503 60.8076 48.5112ZM51.696 37.0994C51.4474 38.1017 51.0706 39.1155 50.6568 39.8621C49.8053 40.15 48.6692 40.3441 47.5933 40.3991C48.6867 38.9729 50.0844 37.8512 51.696 37.0994ZM47.0101 53.1326C46.1841 51.8225 45.6369 50.3433 45.4088 48.8054C46.1689 49.3297 46.8885 49.9381 47.3872 50.4912C47.3816 51.2582 47.241 52.2161 47.0101 53.1326ZM45.2893 47.022C45.3134 45.2115 45.7786 43.4404 46.6462 41.8529C46.7576 41.8561 46.8696 41.8587 46.9835 41.8587C48.301 41.8587 49.7737 41.6485 50.9156 41.2943L52.3246 42.9661C51.4237 44.4763 50.7497 46.6769 50.6578 48.4152L48.306 49.3604C47.5219 48.5363 46.3935 47.661 45.2893 47.022ZM50.0124 56.2851C49.3041 55.7864 48.6593 55.2102 48.0901 54.5692C48.5127 53.3282 48.788 51.8789 48.8255 50.7066L51.1335 49.7791C52.3446 51.2607 53.9563 52.3956 55.7595 53.0364L55.664 55.5217C54.5727 55.9522 53.3011 56.6999 52.2751 57.5162C51.4803 57.1966 50.7206 56.7838 50.0124 56.2851ZM53.9917 58.0488C54.7767 57.5226 55.6313 57.0673 56.3516 56.8033C57.0406 57.0865 57.8562 57.559 58.606 58.0981C57.0811 58.4016 55.5039 58.385 53.9917 58.0488ZM60.3254 57.6096C59.3515 56.7852 58.1469 56.0179 57.1068 55.5573L57.2041 53.0209C58.8116 52.3259 60.7419 50.8095 61.7651 49.616L63.8215 50.3818C63.8774 51.6793 64.2252 53.2859 64.7344 54.5898C63.5318 55.9417 62.0212 56.9767 60.3254 57.6096ZM64.3199 49.0278L62.2416 48.2538C62.1469 46.5421 61.2916 44.2825 60.3723 42.8251L61.9426 40.5949C62.7768 40.7797 63.7839 40.8796 64.7781 40.8796C65.0502 40.8796 65.3209 40.8713 65.587 40.8562C66.7467 42.5337 67.4159 44.4771 67.5369 46.5224C66.36 47.1865 65.1536 48.1266 64.3199 49.0278ZM65.7838 53.2082C65.4729 52.1761 65.2725 51.0409 65.2565 50.1426C65.8204 49.5009 66.6481 48.8043 67.5081 48.2326C67.3436 50.0035 66.7584 51.6978 65.7838 53.2082Z" fill="#F23936"/>
<path d="M44.507 35.2834C44.598 35.3215 44.6924 35.3395 44.7852 35.3395C45.0673 35.3395 45.3353 35.173 45.451 34.8963L50.6769 22.4075C50.8308 22.0399 50.6574 21.6173 50.2899 21.4636C49.9225 21.3098 49.4997 21.483 49.3459 21.8506L47.0947 27.2303L35.5338 24.4238L36.0072 22.2852C36.0934 21.8962 35.8478 21.511 35.4588 21.4248C35.0701 21.3387 34.6846 21.5843 34.5985 21.9734L30.7892 39.1791C30.6312 39.1677 30.4718 39.2073 30.3371 39.2973L24.8258 42.9715C24.7835 42.9988 24.7432 43.0307 24.7061 43.0678L23.6019 44.172C23.601 44.1729 23.6003 44.174 23.5992 44.175L21.2112 46.5628C21.076 46.6981 21 46.8815 21 47.0729C21 47.2642 21.076 47.4478 21.2112 47.583L22.1419 48.5136L21.2708 49.3848C20.9889 49.6665 20.9889 50.1232 21.2707 50.4049C21.4116 50.5458 21.5962 50.6163 21.7808 50.6163C21.9654 50.6163 22.1501 50.5458 22.2909 50.4049L23.1622 49.5338L25.9808 52.3524L25.1096 53.2235C24.8279 53.5053 24.8279 53.9621 25.1096 54.2437C25.2505 54.3845 25.4352 54.455 25.6198 54.455C25.8044 54.455 25.9891 54.3846 26.13 54.2437L27.0011 53.3726L29.8197 56.1912L28.9486 57.0622C28.6668 57.3439 28.6668 57.8007 28.9485 58.0824C29.0894 58.2233 29.274 58.2937 29.4587 58.2937C29.6433 58.2937 29.828 58.2233 29.9688 58.0824L30.8399 57.2113L33.6584 60.0298L32.7873 60.9009C32.5056 61.1826 32.5056 61.6395 32.7874 61.9212C32.9282 62.062 33.1129 62.1324 33.2975 62.1324C33.4821 62.1324 33.6668 62.062 33.8077 61.9211L34.6787 61.05L36.5781 62.9493C36.709 63.0803 37.0439 63.4093 37.5247 63.8408L36.626 64.7395C36.3443 65.0212 36.3443 65.4781 36.626 65.7597C36.7669 65.9005 36.9516 65.971 37.1362 65.971C37.3208 65.971 37.5054 65.9006 37.6463 65.7597L38.6249 64.7811C39.4949 65.4886 40.5628 66.2714 41.6896 66.8991L41.3127 67.4761C41.0948 67.8096 41.1885 68.2566 41.5221 68.4746C41.6439 68.5542 41.7806 68.5922 41.9161 68.5922C42.1515 68.5922 42.3823 68.477 42.5207 68.2652L42.9966 67.5367C43.8322 67.8819 44.6704 68.0988 45.4581 68.0987C45.9559 68.0986 46.434 68.0119 46.8777 67.8161C46.9594 67.78 47.0336 67.7292 47.0966 67.6661L48.6611 66.1018C48.6775 66.0853 48.6934 66.0679 48.7082 66.0498C48.8012 65.9368 49.2592 65.3146 49.1446 64.164C48.9628 62.3425 47.469 60.2596 44.703 57.9709L44.3522 56.8603C44.2323 56.4804 43.8269 56.2697 43.447 56.3897C43.0671 56.5097 42.8563 56.9149 42.9763 57.2949L43.3915 58.6098C43.4338 58.7439 43.5144 58.8627 43.6236 58.9517C46.8307 61.5666 47.5919 63.3058 47.7003 64.2611C45.5566 64.1653 42.2942 61.8439 39.9888 59.5386L30.9342 50.4841C30.6524 50.2023 30.1957 50.2023 29.9139 50.4841C29.6322 50.7658 29.6322 51.2226 29.9139 51.5042L38.9685 60.5588C39.4851 61.0754 43.5923 65.0861 47.0799 65.6423L46.1807 66.5416C45.2799 66.8588 43.8528 66.4903 42.1388 65.4938C40.6785 64.6448 38.9812 63.3123 37.5981 61.9293L22.7417 47.0729L24.1121 45.7025L28.356 49.9465C28.4969 50.0874 28.6815 50.1578 28.8662 50.1578C29.0508 50.1578 29.2355 50.0874 29.3764 49.9465C29.6581 49.6648 29.6581 49.2079 29.3764 48.9263L25.1325 44.6823L25.6759 44.139L30.357 41.018C30.8256 42.2409 31.8559 44.4482 33.7237 46.316C34.9768 47.5691 36.5713 47.968 38.3348 47.47C38.8635 47.3207 39.3301 47.1102 39.697 46.9133L40.4341 49.2466L39.5404 49.4007C39.1478 49.4684 38.8843 49.8415 38.9521 50.2343C39.0126 50.5855 39.3175 50.8333 39.6622 50.8333C39.7028 50.8333 39.7442 50.8298 39.7855 50.8227L40.8726 50.6352L40.9853 50.9922L40.1296 51.1506C39.7378 51.2232 39.479 51.5996 39.5514 51.9914C39.6158 52.3387 39.919 52.5816 40.26 52.5816C40.3036 52.5816 40.3478 52.5776 40.3923 52.5694L41.4231 52.3785L41.5348 52.7324L40.6355 52.8989C40.2437 52.9714 39.9848 53.3478 40.0573 53.7396C40.1216 54.087 40.4249 54.3299 40.7659 54.3299C40.8095 54.3299 40.8537 54.3258 40.8982 54.3177L41.9726 54.1187L42.3623 55.3522C42.4823 55.7322 42.8879 55.9429 43.2675 55.8229C43.6475 55.7028 43.8582 55.2977 43.7382 54.9177L43.4019 53.853C43.7828 53.7717 44.0321 53.402 43.9608 53.0168C43.8881 52.625 43.5118 52.366 43.1199 52.4388L42.9643 52.4676L42.8526 52.1137L42.8767 52.1093C43.2684 52.0368 43.5273 51.6603 43.4548 51.2686C43.3822 50.8768 43.0058 50.618 42.614 50.6905L42.4148 50.7274L42.3075 50.3878L42.4539 50.3626C42.8466 50.2949 43.11 49.9218 43.0422 49.5289C42.9746 49.1363 42.6011 48.8728 42.2087 48.9406L41.8688 48.9992L40.8713 45.8408L44.5298 37.0981C44.6836 36.7305 44.5103 36.3078 44.1428 36.1541C43.7749 36.0001 43.3524 36.1735 43.1987 36.5411L39.5162 45.3415C38.9168 45.7548 36.5926 47.1444 34.7442 45.2959C33.2687 43.8205 32.3633 42.0711 31.8801 40.9274L34.3148 29.9304C34.5537 30.0166 34.8391 30.1089 35.1822 30.2109C37.1268 30.7885 40.4131 31.5033 44.9579 32.3373L44.12 34.3398C43.9662 34.7071 44.1395 35.1297 44.507 35.2834ZM34.6295 28.509L35.222 25.8329L46.5308 28.5783L45.5281 30.9744C37.9063 29.5838 35.4154 28.8184 34.6295 28.509Z" fill="#F23936"/>
</g>
<defs>
<clipPath id="clip0_2_1855">
<rect width="48" height="48" fill="white" transform="translate(21 21)"/>
</clipPath>
</defs>
</svg>
