<svg width="61" height="60" viewBox="0 0 61 60" fill="none" xmlns="http://www.w3.org/2000/svg">
<rect x="0.23584" width="60.1899" height="60" rx="3" fill="black"/>
<path d="M27.8232 21.25H28.5732H27.8232ZM27.8232 38.75H27.0732H27.8232ZM32.839 38.75H32.089H32.839ZM32.839 21.25H33.589H32.839ZM17.7915 32.5H18.5415H17.7915ZM17.7915 38.75H17.0415H17.7915ZM22.8073 38.75H22.0573H22.8073ZM22.8073 32.5H23.5573H22.8073ZM37.8548 27.5H37.1048H37.8548ZM37.8548 38.75H38.6048H37.8548ZM42.8706 38.75H43.6206H42.8706ZM42.8706 27.5H42.1206H42.8706ZM32.089 21.25L32.089 38.75H33.589L33.589 21.25H32.089ZM28.5732 38.75L28.5732 21.25H27.0732L27.0732 38.75H28.5732ZM28.5732 21.25C28.5732 20.2857 29.358 19.5 30.3311 19.5V18C28.534 18 27.0732 19.4528 27.0732 21.25H28.5732ZM30.3311 40.5C29.358 40.5 28.5732 39.7143 28.5732 38.75H27.0732C27.0732 40.5472 28.534 42 30.3311 42V40.5ZM32.089 38.75C32.089 39.7143 31.3042 40.5 30.3311 40.5V42C32.1281 42 33.589 40.5472 33.589 38.75H32.089ZM33.589 21.25C33.589 19.4528 32.1281 18 30.3311 18V19.5C31.3042 19.5 32.089 20.2857 32.089 21.25H33.589ZM22.0573 32.5L22.0573 38.75H23.5573L23.5573 32.5H22.0573ZM18.5415 38.75L18.5415 32.5H17.0415L17.0415 38.75H18.5415ZM18.5415 32.5C18.5415 31.5357 19.3263 30.75 20.2994 30.75V29.25C18.5024 29.25 17.0415 30.7028 17.0415 32.5H18.5415ZM20.2994 40.5C19.3263 40.5 18.5415 39.7143 18.5415 38.75H17.0415C17.0415 40.5472 18.5024 42 20.2994 42V40.5ZM22.0573 38.75C22.0573 39.7143 21.2725 40.5 20.2994 40.5V42C22.0965 42 23.5573 40.5472 23.5573 38.75H22.0573ZM23.5573 32.5C23.5573 30.7028 22.0965 29.25 20.2994 29.25V30.75C21.2725 30.75 22.0573 31.5357 22.0573 32.5H23.5573ZM42.1206 27.5V38.75H43.6206V27.5H42.1206ZM38.6048 38.75V27.5H37.1048V38.75H38.6048ZM38.6048 27.5C38.6048 26.5357 39.3896 25.75 40.3627 25.75L40.3627 24.25C38.5657 24.25 37.1048 25.7028 37.1048 27.5H38.6048ZM40.3627 40.5C39.3896 40.5 38.6048 39.7143 38.6048 38.75H37.1048C37.1048 40.5472 38.5657 42 40.3627 42L40.3627 40.5ZM42.1206 38.75C42.1206 39.7143 41.3358 40.5 40.3627 40.5L40.3627 42C42.1598 42 43.6206 40.5472 43.6206 38.75H42.1206ZM43.6206 27.5C43.6206 25.7028 42.1598 24.25 40.3627 24.25L40.3627 25.75C41.3358 25.75 42.1206 26.5357 42.1206 27.5H43.6206Z" fill="#EFEFEF"/>
</svg>
