<svg width="30" height="31" viewBox="0 0 30 31" fill="none" xmlns="http://www.w3.org/2000/svg">
<path d="M26.7857 0.419342H3.21429C1.43973 0.419342 0 1.85907 0 3.63363V27.2051C0 28.9796 1.43973 30.4193 3.21429 30.4193H26.7857C28.5603 30.4193 30 28.9796 30 27.2051V3.63363C30 1.85907 28.5603 0.419342 26.7857 0.419342ZM23.5112 11.0533C23.5246 11.2408 23.5246 11.435 23.5246 11.6225C23.5246 17.4283 19.1049 24.118 11.029 24.118C8.53795 24.118 6.22768 23.3948 4.28571 22.1493C4.64062 22.1894 4.98214 22.2028 5.34375 22.2028C7.39955 22.2028 9.28795 21.5064 10.7946 20.3278C8.86607 20.2876 7.24554 19.022 6.68973 17.2809C7.36607 17.3814 7.97545 17.3814 8.67188 17.2006C6.66295 16.7921 5.15625 15.0243 5.15625 12.8881V12.8345C5.73884 13.1626 6.42188 13.3635 7.13839 13.3903C6.536 12.9896 6.04218 12.446 5.70098 11.8081C5.35979 11.1701 5.18185 10.4576 5.18304 9.73407C5.18304 8.91711 5.39732 8.16711 5.77902 7.51756C7.94196 10.1827 11.1897 11.9238 14.8326 12.1113C14.2098 9.1314 16.4397 6.71398 19.1183 6.71398C20.3839 6.71398 21.5223 7.243 22.3259 8.10015C23.317 7.91265 24.2679 7.54434 25.1116 7.04211C24.7835 8.05997 24.0938 8.91711 23.183 9.45952C24.067 9.36577 24.9241 9.118 25.7143 8.77648C25.1183 9.65372 24.3683 10.4305 23.5112 11.0533Z" fill="black"/>
</svg>
